<svg width="100" height="100" viewBox="0 0 100 100" fill="none" xmlns="http://www.w3.org/2000/svg">
<path d="M62.9131 69.2785C71.217 64.7141 76.8428 55.8857 76.8428 45.7404C76.8428 30.9166 64.8258 18.8977 50 18.8977C35.1742 18.8977 23.1572 30.9168 23.1572 45.7404C23.1572 55.8856 28.783 64.7141 37.0869 69.2785" fill="#EA9B22"/>
<path d="M23.1572 45.7404C23.1572 55.8856 28.783 64.7141 37.0869 69.2785H43.6338C39.5398 64.7141 36.7664 55.8857 36.7664 45.7404C36.7664 30.9166 42.6908 18.8977 50 18.8977C35.1742 18.8975 23.1572 30.9168 23.1572 45.7404Z" fill="#D88A20"/>
<path d="M76.8428 45.7404C76.8428 55.8856 71.217 64.7141 62.9131 69.2785H56.3662C56.3662 69.2785 68.8742 61.6357 68.8742 45.7404C68.8742 26.9246 57.3092 18.8977 50 18.8977C64.8258 18.8975 76.8428 30.9168 76.8428 45.7404Z" fill="#F4B04E"/>
<path d="M60.921 68.9051H39.0792C36.0353 68.9051 33.5679 71.3727 33.5679 74.4166C33.5679 77.4606 36.0354 79.9281 39.0792 79.9281H60.921C63.9649 79.9281 66.4323 77.4606 66.4323 74.4166C66.4323 71.3727 63.9649 68.9051 60.921 68.9051Z" fill="#E4EAEA"/>
<path d="M41.5946 74.4164C41.5946 71.3725 44.0622 68.9049 47.1061 68.9049H39.0792C36.0352 68.9049 33.5676 71.3725 33.5676 74.4164C33.5676 77.4603 36.0352 79.9277 39.0792 79.9277H47.1061C44.0622 79.9279 41.5946 77.4603 41.5946 74.4164Z" fill="#B6BCBB"/>
<path d="M60.921 79.9279H39.0792C36.0353 79.9279 33.5679 82.3955 33.5679 85.4394C33.5679 88.4834 36.0354 90.951 39.0792 90.951H60.921C63.9649 90.951 66.4323 88.4834 66.4323 85.4394C66.4323 82.3955 63.9649 79.9279 60.921 79.9279Z" fill="#E4EAEA"/>
<path d="M41.5946 85.4393C41.5946 82.3953 44.0622 79.9277 47.1061 79.9277H39.0792C36.0352 79.9277 33.5676 82.3953 33.5676 85.4393C33.5676 88.4832 36.0352 90.9506 39.0792 90.9506H47.1061C44.0622 90.9508 41.5946 88.4832 41.5946 85.4393Z" fill="#B6BCBB"/>
<path d="M42.6516 90.9508C42.6516 95.0094 45.9416 98.2992 50 98.2992C54.0584 98.2992 57.3485 95.0092 57.3485 90.9508" fill="#B6BCBB"/>
<path d="M47.858 90.9508H42.6514C42.6514 95.0094 45.9414 98.2992 49.9998 98.2992C50.9168 98.2992 51.7938 98.1299 52.6031 97.823C49.8301 96.7721 47.858 94.0924 47.858 90.9508Z" fill="#7A8280"/>
<path d="M59.3215 28.7L51.2708 43.6959H61.1948L44.0245 63.7016L47.8053 48.5791H41.0315L43.254 28.7H59.3215Z" fill="#F23488"/>
<path d="M42.1859 38.2537C41.2527 38.15 40.4113 38.8215 40.3068 39.7549L39.3416 48.39C39.2879 48.8709 39.4414 49.352 39.764 49.7127C40.0867 50.0734 40.5476 50.2795 41.0316 50.2795H45.6271L42.375 63.2889C42.1836 64.0539 42.5435 64.85 43.2439 65.2119C43.4918 65.34 43.7592 65.402 44.0242 65.402C44.5082 65.402 44.9836 65.1953 45.3154 64.8088L62.4857 44.8031C62.9183 44.299 63.0179 43.5891 62.7406 42.9854C62.4631 42.3816 61.8597 41.9949 61.1953 41.9949H54.1146L60.8205 29.5039C61.1035 28.977 61.0886 28.3396 60.7816 27.8266C60.4746 27.3131 59.9205 26.9988 59.3221 26.9988H43.2539C42.3877 26.9988 41.6599 27.6498 41.5637 28.5105L40.9082 34.374C40.8039 35.3074 41.476 36.1488 42.4094 36.2531C43.3441 36.3572 44.1842 35.6853 44.2885 34.7519L44.7752 30.4002H56.4783L49.7724 42.8912C49.4894 43.4182 49.5043 44.0555 49.8113 44.5686C50.1183 45.082 50.6724 45.3963 51.2709 45.3963H57.4939L47.4191 57.1348L49.4549 48.9914C49.582 48.4832 49.4678 47.9451 49.1455 47.5322C48.8232 47.1195 48.3287 46.8783 47.8049 46.8783H42.9328L43.6869 40.1328C43.7914 39.1996 43.1193 38.3582 42.1859 38.2537Z" fill="black"/>
<path d="M78.5437 45.7404C78.5437 30.0014 65.7392 17.1969 50.0001 17.1969C41.971 17.1969 34.2681 20.6076 28.8663 26.5543C28.2349 27.2496 28.2864 28.325 28.9817 28.9566C29.6772 29.5881 30.7526 29.5365 31.3843 28.8412C36.1425 23.6027 42.928 20.598 50.0001 20.598C63.8636 20.598 75.1423 31.8768 75.1423 45.7402C75.1423 54.6756 70.3997 62.9199 62.7185 67.4307C62.1437 67.2826 61.5413 67.2039 60.921 67.2039H39.0792C38.4589 67.2039 37.8565 67.2826 37.2817 67.4307C29.6005 62.9195 24.8579 54.6756 24.8579 45.7402C24.8579 41.1023 26.1306 36.5713 28.538 32.6369C29.0282 31.8357 28.7761 30.7889 27.9749 30.2986C27.1737 29.8082 26.1269 30.0605 25.6366 30.8617C22.9019 35.3307 21.4565 40.4756 21.4565 45.7404C21.4565 55.2463 26.1847 64.0621 33.9546 69.3476C32.6649 70.6514 31.8673 72.4422 31.8673 74.4164C31.8673 76.625 32.8661 78.6039 34.4349 79.9277C32.8661 81.2518 31.8673 83.2305 31.8673 85.4391C31.8673 89.416 35.1026 92.6514 39.0796 92.6514H41.1136C41.9116 96.8307 45.5917 100 50.0001 100C54.4085 100 58.0886 96.8307 58.887 92.6516H60.921C64.898 92.6516 68.1333 89.4162 68.1333 85.4393C68.1333 83.2307 67.1345 81.2517 65.5657 79.9279C67.1345 78.6039 68.1333 76.625 68.1333 74.4164C68.1333 72.4422 67.3353 70.6514 66.046 69.3476C73.8155 64.0623 78.5437 55.2465 78.5437 45.7404ZM50.0001 96.5986C47.4784 96.5986 45.3378 94.9371 44.6144 92.6514H55.386C54.6624 94.9371 52.5218 96.5986 50.0001 96.5986ZM58.244 78.2271C57.3048 78.2271 56.5435 78.9887 56.5435 79.9277C56.5435 80.8668 57.305 81.6283 58.244 81.6283H60.921C63.0224 81.6283 64.7319 83.3379 64.7319 85.4391C64.7319 87.5402 63.0224 89.25 60.921 89.25H39.0792C36.9778 89.25 35.2683 87.5404 35.2683 85.4391C35.2683 83.3377 36.9778 81.6283 39.0792 81.6283H52.8204C53.7597 81.6283 54.521 80.8668 54.521 79.9277C54.521 78.9887 53.7595 78.2271 52.8204 78.2271H39.0792C36.9778 78.2271 35.2683 76.5176 35.2683 74.4162C35.2683 72.3148 36.9778 70.6055 39.0792 70.6055H60.921C63.0224 70.6055 64.7319 72.315 64.7319 74.4164C64.7319 76.5178 63.0224 78.2271 60.921 78.2271H58.244Z" fill="black"/>
<path d="M94.0396 44.0397H84.0568C83.1175 44.0397 82.3562 44.8012 82.3562 45.7402C82.3562 46.6793 83.1177 47.4408 84.0568 47.4408H94.0396C94.9789 47.4408 95.7402 46.6793 95.7402 45.7402C95.7402 44.8012 94.9789 44.0397 94.0396 44.0397Z" fill="black"/>
<path d="M17.6438 45.7404C17.6438 44.8012 16.8822 44.0398 15.9432 44.0398H5.96035C5.02109 44.0398 4.25977 44.8014 4.25977 45.7404C4.25977 46.6795 5.02129 47.441 5.96035 47.441H15.9432C16.8822 47.441 17.6438 46.6797 17.6438 45.7404Z" fill="black"/>
<path d="M79.893 33.3582C80.1643 34.0131 80.7975 34.4086 81.4649 34.4086C81.6819 34.4086 81.9024 34.3668 82.1151 34.2787L91.338 30.4586C92.2057 30.0992 92.6179 29.1041 92.2583 28.2365C91.8991 27.3687 90.9038 26.9566 90.0362 27.3162L80.8134 31.1363C79.9458 31.4957 79.5337 32.4904 79.893 33.3582Z" fill="black"/>
<path d="M20.1068 58.1227C19.7474 57.2549 18.7523 56.843 17.8847 57.2022L8.66186 61.0223C7.79408 61.3816 7.38197 62.3764 7.74154 63.2443C8.01283 63.8992 8.64604 64.2947 9.31342 64.2947C9.53041 64.2947 9.75092 64.2529 9.96361 64.1648L19.1865 60.3447C20.054 59.9854 20.4662 58.9904 20.1068 58.1227Z" fill="black"/>
<path d="M74.0818 23.3592C74.517 23.3592 74.9523 23.1932 75.2844 22.8609L82.3434 15.802C83.0076 15.1377 83.0076 14.0611 82.3434 13.3969C81.6791 12.7326 80.6023 12.7326 79.9383 13.3969L72.8793 20.4559C72.215 21.1201 72.215 22.1967 72.8793 22.8609C73.2113 23.1932 73.6465 23.3592 74.0818 23.3592Z" fill="black"/>
<path d="M24.7156 68.6197L17.6566 75.6787C16.9924 76.343 16.9924 77.4197 17.6566 78.0838C17.9887 78.416 18.424 78.582 18.8592 78.582C19.2943 78.582 19.7297 78.416 20.0617 78.0838L27.1207 71.0248C27.785 70.3605 27.785 69.2838 27.1207 68.6197C26.4566 67.9555 25.3799 67.9555 24.7156 68.6197Z" fill="black"/>
<path d="M64.7002 10.2508C64.9129 10.3391 65.1336 10.3807 65.3504 10.3807C66.0178 10.3807 66.651 9.98516 66.9223 9.33027L68.4246 5.70371C68.784 4.83594 68.3721 3.84121 67.5043 3.48164C66.6367 3.12207 65.6418 3.53418 65.2822 4.40195L63.7799 8.02852C63.4203 8.89668 63.8324 9.89141 64.7002 10.2508Z" fill="black"/>
<path d="M62.3821 15.8471C62.595 15.9354 62.8155 15.977 63.0325 15.977C63.6998 15.977 64.3328 15.5816 64.6043 14.9268L64.9746 14.0328C65.334 13.165 64.9223 12.1703 64.0545 11.8106C63.187 11.4512 62.192 11.8629 61.8325 12.7307L61.4621 13.6246C61.1024 14.4928 61.5143 15.4877 62.3821 15.8471Z" fill="black"/>
<path d="M49.9999 13.3844C50.9392 13.3844 51.7005 12.6229 51.7005 11.6838V1.70059C51.7005 0.761523 50.9392 0 49.9999 0C49.0606 0 48.2993 0.761523 48.2993 1.70059V11.6836C48.2993 12.6229 49.0606 13.3844 49.9999 13.3844Z" fill="black"/>
<path d="M35.3956 14.9268C35.6669 15.5816 36.3001 15.9771 36.9675 15.9771C37.1845 15.9771 37.405 15.9353 37.6177 15.8473C38.4854 15.4879 38.8975 14.4928 38.5382 13.6252L34.7177 4.40234C34.3583 3.53457 33.3632 3.12246 32.4956 3.48203C31.6278 3.8414 31.2157 4.83652 31.5753 5.7041L35.3956 14.9268Z" fill="black"/>
<path d="M24.7156 22.8611C25.0477 23.1934 25.483 23.3594 25.9182 23.3594C26.3533 23.3594 26.7887 23.1934 27.1207 22.8611C27.785 22.1969 27.785 21.1203 27.1207 20.4561L20.0617 13.3971C19.3975 12.7328 18.3207 12.7328 17.6566 13.3971C16.9924 14.0613 16.9924 15.1379 17.6566 15.8022L24.7156 22.8611Z" fill="black"/>
<path d="M75.2844 68.6197C74.6201 67.9555 73.5434 67.9555 72.8793 68.6197C72.215 69.284 72.215 70.3605 72.8793 71.0248L79.9383 78.0838C80.2703 78.416 80.7057 78.582 81.1408 78.582C81.576 78.582 82.0113 78.416 82.3434 78.0838C83.0076 77.4195 83.0076 76.343 82.3434 75.6787L75.2844 68.6197Z" fill="black"/>
<path d="M8.66183 30.4586L17.8847 34.2787C18.0974 34.367 18.3181 34.4086 18.5349 34.4086C19.2023 34.4086 19.8355 34.0131 20.1068 33.3582C20.4661 32.4904 20.0542 31.4957 19.1864 31.1361L9.96359 27.316C9.09581 26.9566 8.10109 27.3686 7.74152 28.2363C7.38195 29.1041 7.79425 30.0988 8.66183 30.4586Z" fill="black"/>
<path d="M91.3382 61.0225L82.1154 57.2024C81.2476 56.843 80.2525 57.2549 79.8933 58.1229C79.5339 58.9906 79.9459 59.9854 80.8136 60.3449L90.0365 64.165C90.2494 64.2533 90.4699 64.2949 90.6867 64.2949C91.3541 64.2949 91.9873 63.8994 92.2586 63.2445C92.6181 62.377 92.2058 61.3818 91.3382 61.0225Z" fill="black"/>
</svg>
