<svg width="102" height="54" viewBox="0 0 102 54" fill="none" xmlns="http://www.w3.org/2000/svg">
<path d="M38.1784 10.0897C38.1784 10.2463 38.1582 10.3832 38.118 10.5006C38.0778 10.618 38.023 10.7191 37.9537 10.8039C37.8844 10.8887 37.8039 10.9572 37.7123 11.0094C37.6206 11.0615 37.5256 11.1007 37.4273 11.1268V11.1398C37.548 11.1616 37.6609 11.2028 37.7659 11.2637C37.871 11.3246 37.9626 11.4007 38.0409 11.492C38.1191 11.5833 38.1817 11.6909 38.2287 11.8148C38.2756 11.9388 38.2991 12.0746 38.2991 12.2225C38.2991 12.4008 38.2678 12.5638 38.2052 12.7116C38.1426 12.8594 38.0454 12.9877 37.9134 13.0964C37.7816 13.2051 37.6151 13.2899 37.4139 13.3508C37.2127 13.4117 36.9735 13.4421 36.6963 13.4421H35.7508V8.94184H36.6427C36.9154 8.94184 37.149 8.96903 37.3435 9.02334C37.538 9.07771 37.6978 9.15488 37.8229 9.25491C37.9481 9.35493 38.0387 9.47556 38.0946 9.61686C38.1504 9.7582 38.1784 9.91583 38.1784 10.0897ZM37.5882 10.1093C37.5882 9.90059 37.5122 9.72883 37.3602 9.59405C37.2082 9.45928 36.969 9.39187 36.6427 9.39187H36.3342V10.9441H36.636C36.9489 10.9441 37.1859 10.8702 37.3468 10.7224C37.5078 10.5746 37.5882 10.3702 37.5882 10.1093ZM37.6754 12.1833C37.6754 11.9398 37.5938 11.7474 37.4307 11.6061C37.2675 11.4648 37.0339 11.3942 36.7298 11.3942H36.3342V12.9725H36.6963C37.0406 12.9725 37.2898 12.9062 37.4441 12.7736C37.5983 12.641 37.6754 12.4442 37.6754 12.1833ZM41.2699 13.4421H40.7736V13.0899H40.7602C40.7468 13.116 40.7177 13.154 40.673 13.204C40.6283 13.2541 40.5713 13.3019 40.502 13.3475C40.4327 13.3932 40.3489 13.4334 40.2505 13.4682C40.1522 13.503 40.0427 13.5204 39.9219 13.5204C39.7789 13.5204 39.6504 13.4997 39.5364 13.4584C39.4224 13.4171 39.3251 13.3508 39.2446 13.2595C39.1642 13.1682 39.1027 13.0497 39.0602 12.904C39.0177 12.7584 38.9965 12.579 38.9965 12.366V10.3115H39.5397V12.3268C39.5397 12.5877 39.5833 12.7736 39.6705 12.8845C39.7577 12.9953 39.8929 13.0508 40.0762 13.0508C40.2327 13.0508 40.3645 13.0127 40.4718 12.9366C40.5791 12.8605 40.6641 12.7856 40.7267 12.7116V10.3115H41.2699V13.4421ZM43.8584 13.4421V11.4268C43.8584 11.1616 43.8126 10.9713 43.721 10.8561C43.6293 10.7408 43.4896 10.6832 43.3018 10.6832C43.1409 10.6832 43.0067 10.7224 42.8994 10.8006C42.7921 10.8789 42.7072 10.955 42.6446 11.0289V13.4421H42.1014V10.3115H42.5977V10.6637H42.6111C42.6245 10.6376 42.6536 10.5996 42.6983 10.5495C42.7429 10.4995 42.8011 10.4517 42.8726 10.406C42.9441 10.3604 43.0291 10.3202 43.1274 10.2854C43.2258 10.2506 43.3376 10.2332 43.4627 10.2332C43.6058 10.2332 43.7354 10.2539 43.8517 10.2952C43.968 10.3365 44.0663 10.4028 44.1468 10.4941C44.2272 10.5854 44.2899 10.7039 44.3345 10.8495C44.3792 10.9952 44.4016 11.1746 44.4016 11.3876V13.4421H43.8584ZM45.0655 11.9224C45.0655 11.6051 45.108 11.3398 45.1929 11.1268C45.2778 10.9137 45.3874 10.7419 45.5215 10.6115C45.6556 10.4811 45.8076 10.3887 45.9775 10.3343C46.1474 10.28 46.3173 10.2528 46.4872 10.2528C46.59 10.2528 46.6794 10.2604 46.7554 10.2756C46.8315 10.2908 46.894 10.3093 46.9432 10.3311V8.83097L47.4864 8.77227V13.4421H46.9901V13.1095H46.9767C46.9633 13.1356 46.9387 13.1714 46.903 13.2171C46.8672 13.2627 46.818 13.3084 46.7554 13.354C46.6928 13.3997 46.6146 13.4388 46.5207 13.4715C46.4268 13.5041 46.3173 13.5204 46.1921 13.5204C46.0401 13.5204 45.8959 13.491 45.7596 13.4323C45.6232 13.3736 45.5036 13.2801 45.4008 13.1518C45.298 13.0236 45.2164 12.8583 45.1561 12.6562C45.0957 12.454 45.0655 12.2094 45.0655 11.9224ZM46.3397 13.0508C46.4246 13.0508 46.5006 13.0399 46.5677 13.0182C46.6347 12.9964 46.6928 12.9692 46.742 12.9366C46.7912 12.904 46.8326 12.8703 46.8661 12.8355C46.8996 12.8007 46.9253 12.7703 46.9432 12.7442V10.8137C46.894 10.7833 46.837 10.7572 46.7722 10.7354C46.7074 10.7137 46.6258 10.7028 46.5274 10.7028C46.4023 10.7028 46.2849 10.7235 46.1754 10.7647C46.0658 10.8061 45.9708 10.8746 45.8903 10.9702C45.8099 11.0659 45.7462 11.1898 45.6993 11.342C45.6523 11.4942 45.6288 11.6811 45.6288 11.9029C45.6288 12.1203 45.6478 12.3018 45.6858 12.4475C45.7238 12.5931 45.7763 12.7105 45.8434 12.7996C45.9105 12.8888 45.9865 12.9529 46.0714 12.9921C46.1563 13.0312 46.2458 13.0508 46.3397 13.0508ZM50.3834 11.3681C50.3834 11.5028 50.379 11.6191 50.37 11.717C50.361 11.8148 50.3521 11.9007 50.3432 11.9746H48.7002C48.7181 12.3442 48.7997 12.616 48.945 12.7899C49.0903 12.9638 49.2993 13.0508 49.572 13.0508C49.6659 13.0508 49.7508 13.0399 49.8268 13.0182C49.9028 12.9964 49.9688 12.9703 50.0247 12.9399C50.0805 12.9095 50.1275 12.879 50.1655 12.8486C50.2035 12.8182 50.2314 12.7942 50.2493 12.7768L50.4505 13.1486C50.4281 13.1704 50.3946 13.2019 50.3499 13.2431C50.3052 13.2845 50.2448 13.3258 50.1688 13.3671C50.0928 13.4084 49.9989 13.4443 49.8872 13.4747C49.7754 13.5051 49.6435 13.5204 49.4915 13.5204C49.2903 13.5204 49.1081 13.4878 48.945 13.4225C48.7818 13.3573 48.6432 13.2562 48.5292 13.1192C48.4152 12.9823 48.3269 12.8084 48.2643 12.5975C48.2017 12.3866 48.1704 12.1333 48.1704 11.8377C48.1704 11.5594 48.2028 11.3191 48.2677 11.1169C48.3325 10.9148 48.4208 10.7485 48.5325 10.618C48.6443 10.4876 48.774 10.3908 48.9215 10.3278C49.069 10.2647 49.2277 10.2332 49.3976 10.2332C49.7061 10.2332 49.9475 10.3278 50.1219 10.5169C50.2962 10.706 50.3834 10.9898 50.3834 11.3681ZM49.3641 10.6637C49.1719 10.6637 49.0176 10.7419 48.9014 10.8985C48.7851 11.055 48.7181 11.2811 48.7002 11.5768H49.8738C49.8782 11.555 49.8816 11.5235 49.8838 11.4822C49.886 11.4409 49.8872 11.3964 49.8872 11.3485C49.8872 11.1311 49.8425 10.9626 49.753 10.843C49.6636 10.7235 49.534 10.6637 49.3641 10.6637ZM52.4958 10.9441C52.4601 10.905 52.3952 10.8517 52.3014 10.7843C52.2075 10.717 52.0845 10.6832 51.9325 10.6832C51.7894 10.6832 51.6799 10.7159 51.6039 10.7811C51.5279 10.8463 51.4899 10.9246 51.4899 11.0159C51.4899 11.1333 51.5246 11.23 51.5939 11.3061C51.6632 11.3822 51.7693 11.4637 51.9124 11.5507L52.1136 11.6681C52.3326 11.7942 52.5048 11.9301 52.63 12.0757C52.7551 12.2214 52.8177 12.4094 52.8177 12.6399C52.8177 12.8877 52.7294 13.0964 52.5529 13.266C52.3763 13.4356 52.1225 13.5204 51.7917 13.5204C51.662 13.5204 51.548 13.5073 51.4497 13.4812C51.3514 13.4551 51.2652 13.4247 51.1915 13.3899C51.1178 13.3551 51.0563 13.3171 51.0071 13.2758C50.9579 13.2345 50.9177 13.1965 50.8864 13.1617L51.1479 12.7442C51.1747 12.7703 51.2071 12.8007 51.2452 12.8355C51.2832 12.8703 51.329 12.904 51.3826 12.9366C51.4363 12.9692 51.4966 12.9964 51.5637 13.0182C51.6307 13.0399 51.709 13.0508 51.7984 13.0508C51.9593 13.0508 52.0823 13.016 52.1672 12.9464C52.2522 12.8769 52.2947 12.7921 52.2947 12.6921C52.2947 12.6181 52.2846 12.554 52.2645 12.4996C52.2444 12.4453 52.2142 12.3964 52.1739 12.3529C52.1337 12.3094 52.0845 12.2681 52.0264 12.229C51.9683 12.1899 51.9012 12.1464 51.8252 12.0985L51.624 11.9746C51.4229 11.8485 51.2652 11.7159 51.1513 11.5768C51.0373 11.4376 50.9803 11.2594 50.9803 11.042C50.9803 10.9246 51.0038 10.8169 51.0507 10.7191C51.0976 10.6213 51.1636 10.5365 51.2485 10.4647C51.3334 10.393 51.433 10.3365 51.547 10.2952C51.661 10.2539 51.7827 10.2332 51.9124 10.2332C52.0376 10.2332 52.1449 10.2452 52.2343 10.2691C52.3237 10.293 52.4008 10.3234 52.4657 10.3604C52.5305 10.3974 52.5841 10.4343 52.6266 10.4713C52.6691 10.5082 52.7037 10.5398 52.7305 10.5659L52.4958 10.9441ZM55.1447 13.4421V11.4268C55.1447 11.1702 55.1068 10.9855 55.0307 10.8724C54.9547 10.7593 54.8318 10.7028 54.6619 10.7028C54.5725 10.7028 54.4931 10.7137 54.4239 10.7354C54.3545 10.7572 54.2931 10.7843 54.2394 10.8169C54.1858 10.8495 54.1388 10.8854 54.0986 10.9246C54.0583 10.9637 54.0248 10.9985 53.998 11.0289V13.4421H53.4548V10.3115H53.9511V10.6637H53.9645C53.9868 10.6289 54.0204 10.5865 54.0651 10.5365C54.1097 10.4865 54.1656 10.4386 54.2327 10.393C54.2998 10.3473 54.378 10.3093 54.4674 10.2789C54.5569 10.2485 54.6574 10.2332 54.7692 10.2332C55.1358 10.2332 55.3951 10.3724 55.5471 10.6506C55.5784 10.6072 55.6209 10.5604 55.6745 10.5104C55.7282 10.4604 55.7908 10.4147 55.8623 10.3734C55.9338 10.3321 56.0143 10.2984 56.1037 10.2724C56.1931 10.2463 56.2915 10.2332 56.3988 10.2332C57.0515 10.2332 57.3779 10.6028 57.3779 11.342V13.4421H56.8347V11.4268C56.8347 11.1702 56.7877 10.9855 56.6938 10.8724C56.6 10.7593 56.4614 10.7028 56.2781 10.7028C56.1261 10.7028 55.9998 10.7387 55.8992 10.8104C55.7986 10.8822 55.7192 10.9507 55.6611 11.0159C55.6701 11.0637 55.6768 11.1148 55.6812 11.1692C55.6857 11.2235 55.6879 11.2811 55.6879 11.342V13.4421H55.1447ZM58.7325 13.4421H58.1893V10.3115H58.7325V13.4421ZM58.4642 9.55492C58.3525 9.55492 58.2631 9.52012 58.196 9.45057C58.1289 9.38101 58.0954 9.28971 58.0954 9.17664C58.0954 9.06796 58.1289 8.97878 58.196 8.90923C58.2631 8.83968 58.3525 8.80488 58.4642 8.80488C58.5715 8.80488 58.6587 8.83968 58.7258 8.90923C58.7928 8.97878 58.8264 9.06796 58.8264 9.17664C58.8264 9.28971 58.7928 9.38101 58.7258 9.45057C58.6587 9.52012 58.5715 9.55492 58.4642 9.55492ZM61.321 13.4421V11.4268C61.321 11.1616 61.2752 10.9713 61.1836 10.8561C61.0919 10.7408 60.9522 10.6832 60.7644 10.6832C60.6035 10.6832 60.4694 10.7224 60.3621 10.8006C60.2548 10.8789 60.1698 10.955 60.1072 11.0289V13.4421H59.564V10.3115H60.0603V10.6637H60.0737C60.0871 10.6376 60.1162 10.5996 60.1609 10.5495C60.2056 10.4995 60.2637 10.4517 60.3352 10.406C60.4067 10.3604 60.4917 10.3202 60.5901 10.2854C60.6884 10.2506 60.8002 10.2332 60.9254 10.2332C61.0685 10.2332 61.1981 10.2539 61.3143 10.2952C61.4306 10.3365 61.5289 10.4028 61.6094 10.4941C61.6899 10.5854 61.7525 10.7039 61.7972 10.8495C61.8419 10.9952 61.8642 11.1746 61.8642 11.3876V13.4421H61.321ZM63.2189 13.4421H62.6757V10.3115H63.2189V13.4421ZM62.9506 9.55492C62.8389 9.55492 62.7494 9.52012 62.6824 9.45057C62.6153 9.38101 62.5818 9.28971 62.5818 9.17664C62.5818 9.06796 62.6153 8.97878 62.6824 8.90923C62.7494 8.83968 62.8389 8.80488 62.9506 8.80488C63.0579 8.80488 63.1451 8.83968 63.2121 8.90923C63.2792 8.97878 63.3127 9.06796 63.3127 9.17664C63.3127 9.28971 63.2792 9.38101 63.2121 9.45057C63.1451 9.52012 63.0579 9.55492 62.9506 9.55492ZM65.4386 10.9441C65.4028 10.905 65.338 10.8517 65.2441 10.7843C65.1502 10.717 65.0272 10.6832 64.8753 10.6832C64.7322 10.6832 64.6227 10.7159 64.5467 10.7811C64.4706 10.8463 64.4327 10.9246 64.4327 11.0159C64.4327 11.1333 64.4673 11.23 64.5366 11.3061C64.6059 11.3822 64.712 11.4637 64.8551 11.5507L65.0563 11.6681C65.2754 11.7942 65.4475 11.9301 65.5727 12.0757C65.6978 12.2214 65.7605 12.4094 65.7605 12.6399C65.7605 12.8877 65.6721 13.0964 65.4956 13.266C65.319 13.4356 65.0653 13.5204 64.7344 13.5204C64.6048 13.5204 64.4907 13.5073 64.3924 13.4812C64.2941 13.4551 64.208 13.4247 64.1343 13.3899C64.0605 13.3551 63.999 13.3171 63.9498 13.2758C63.9006 13.2345 63.8604 13.1965 63.8291 13.1617L64.0906 12.7442C64.1175 12.7703 64.1499 12.8007 64.1879 12.8355C64.2259 12.8703 64.2717 12.904 64.3254 12.9366C64.379 12.9692 64.4394 12.9964 64.5064 13.0182C64.5735 13.0399 64.6517 13.0508 64.7411 13.0508C64.9021 13.0508 65.025 13.016 65.11 12.9464C65.1949 12.8769 65.2374 12.7921 65.2374 12.6921C65.2374 12.6181 65.2273 12.554 65.2072 12.4996C65.1871 12.4453 65.1569 12.3964 65.1167 12.3529C65.0764 12.3094 65.0272 12.2681 64.9691 12.229C64.911 12.1899 64.844 12.1464 64.768 12.0985L64.5668 11.9746C64.3656 11.8485 64.208 11.7159 64.094 11.5768C63.98 11.4376 63.923 11.2594 63.923 11.042C63.923 10.9246 63.9465 10.8169 63.9934 10.7191C64.0404 10.6213 64.1063 10.5365 64.1912 10.4647C64.2762 10.393 64.3757 10.3365 64.4897 10.2952C64.6037 10.2539 64.7255 10.2332 64.8551 10.2332C64.9803 10.2332 65.0876 10.2452 65.177 10.2691C65.2665 10.293 65.3435 10.3234 65.4084 10.3604C65.4732 10.3974 65.5269 10.4343 65.5694 10.4713C65.6118 10.5082 65.6465 10.5398 65.6733 10.5659L65.4386 10.9441ZM67.7723 10.7419H67.0681V12.4768C67.0681 12.6986 67.0972 12.8497 67.1553 12.9301C67.2134 13.0105 67.3118 13.0508 67.4504 13.0508C67.5309 13.0508 67.6002 13.0399 67.6583 13.0182C67.7164 12.9964 67.7589 12.9768 67.7857 12.9595L67.8595 13.3834C67.8371 13.4008 67.7834 13.428 67.6985 13.465C67.6136 13.5019 67.4996 13.5204 67.3565 13.5204C67.0793 13.5204 66.8714 13.4454 66.7328 13.2953C66.5943 13.1454 66.5249 12.8964 66.5249 12.5486V10.7419H66.136V10.3898L66.5249 10.3115L66.5853 9.43752H67.0681V10.3115H67.8393L67.7723 10.7419ZM70.4078 11.3681C70.4078 11.5028 70.4033 11.6191 70.3944 11.717C70.3854 11.8148 70.3765 11.9007 70.3675 11.9746H68.7245C68.7424 12.3442 68.824 12.616 68.9693 12.7899C69.1146 12.9638 69.3236 13.0508 69.5963 13.0508C69.6902 13.0508 69.7751 13.0399 69.8512 13.0182C69.9272 12.9964 69.9931 12.9703 70.049 12.9399C70.1049 12.9095 70.1518 12.879 70.1898 12.8486C70.2278 12.8182 70.2558 12.7942 70.2736 12.7768L70.4748 13.1486C70.4525 13.1704 70.4189 13.2019 70.3742 13.2431C70.3295 13.2845 70.2692 13.3258 70.1932 13.3671C70.1171 13.4084 70.0233 13.4443 69.9115 13.4747C69.7998 13.5051 69.6678 13.5204 69.5159 13.5204C69.3147 13.5204 69.1325 13.4878 68.9693 13.4225C68.8061 13.3573 68.6676 13.2562 68.5536 13.1192C68.4396 12.9823 68.3513 12.8084 68.2886 12.5975C68.226 12.3866 68.1948 12.1333 68.1948 11.8377C68.1948 11.5594 68.2272 11.3191 68.292 11.1169C68.3568 10.9148 68.4451 10.7485 68.5569 10.618C68.6686 10.4876 68.7983 10.3908 68.9458 10.3278C69.0934 10.2647 69.2521 10.2332 69.422 10.2332C69.7305 10.2332 69.9719 10.3278 70.1462 10.5169C70.3206 10.706 70.4078 10.9898 70.4078 11.3681ZM69.3884 10.6637C69.1962 10.6637 69.042 10.7419 68.9257 10.8985C68.8095 11.055 68.7424 11.2811 68.7245 11.5768H69.8981C69.9026 11.555 69.9059 11.5235 69.9082 11.4822C69.9104 11.4409 69.9115 11.3964 69.9115 11.3485C69.9115 11.1311 69.8668 10.9626 69.7774 10.843C69.688 10.7235 69.5583 10.6637 69.3884 10.6637ZM72.547 10.7746C72.5336 10.7658 72.5045 10.755 72.4598 10.7419C72.4151 10.7289 72.3548 10.7224 72.2788 10.7224C72.1089 10.7224 71.9759 10.7669 71.8798 10.8561C71.7836 10.9452 71.7155 11.042 71.6752 11.1463V13.4421H71.132V10.3115H71.6283V10.7354H71.6417C71.6641 10.6745 71.6931 10.6147 71.7289 10.556C71.7646 10.4973 71.8093 10.4452 71.863 10.3995C71.9166 10.3539 71.9803 10.318 72.0541 10.2919C72.1279 10.2658 72.2162 10.2528 72.319 10.2528C72.395 10.2528 72.4565 10.2593 72.5034 10.2724C72.5504 10.2854 72.5872 10.2963 72.6141 10.305L72.547 10.7746ZM73.6267 13.4421H73.0835V10.3115H73.6267V13.4421ZM73.3584 9.55492C73.2467 9.55492 73.1573 9.52012 73.0902 9.45057C73.0231 9.38101 72.9896 9.28971 72.9896 9.17664C72.9896 9.06796 73.0231 8.97878 73.0902 8.90923C73.1573 8.83968 73.2467 8.80488 73.3584 8.80488C73.4657 8.80488 73.5529 8.83968 73.62 8.90923C73.687 8.97878 73.7206 9.06796 73.7206 9.17664C73.7206 9.28971 73.687 9.38101 73.62 9.45057C73.5529 9.52012 73.4657 9.55492 73.3584 9.55492ZM76.7115 13.4421H76.2152V13.0899H76.2018C76.1884 13.116 76.1593 13.154 76.1146 13.204C76.0699 13.2541 76.0129 13.3019 75.9437 13.3475C75.8743 13.3932 75.7905 13.4334 75.6922 13.4682C75.5938 13.503 75.4843 13.5204 75.3636 13.5204C75.2205 13.5204 75.092 13.4997 74.978 13.4584C74.864 13.4171 74.7667 13.3508 74.6862 13.2595C74.6058 13.1682 74.5443 13.0497 74.5019 12.904C74.4594 12.7584 74.4381 12.579 74.4381 12.366V10.3115H74.9813V12.3268C74.9813 12.5877 75.0249 12.7736 75.1121 12.8845C75.1993 12.9953 75.3345 13.0508 75.5178 13.0508C75.6743 13.0508 75.8062 13.0127 75.9135 12.9366C76.0208 12.8605 76.1057 12.7856 76.1683 12.7116V10.3115H76.7115V13.4421ZM79.233 13.4421V11.4268C79.233 11.1702 79.195 10.9855 79.119 10.8724C79.0429 10.7593 78.92 10.7028 78.7501 10.7028C78.6607 10.7028 78.5813 10.7137 78.5121 10.7354C78.4428 10.7572 78.3813 10.7843 78.3276 10.8169C78.274 10.8495 78.227 10.8854 78.1868 10.9246C78.1466 10.9637 78.113 10.9985 78.0862 11.0289V13.4421H77.543V10.3115H78.0393V10.6637H78.0527C78.0751 10.6289 78.1086 10.5865 78.1533 10.5365C78.198 10.4865 78.2539 10.4386 78.3209 10.393C78.388 10.3473 78.4662 10.3093 78.5556 10.2789C78.6451 10.2485 78.7457 10.2332 78.8574 10.2332C79.224 10.2332 79.4833 10.3724 79.6353 10.6506C79.6666 10.6072 79.7091 10.5604 79.7627 10.5104C79.8164 10.4604 79.879 10.4147 79.9505 10.3734C80.022 10.3321 80.1025 10.2984 80.1919 10.2724C80.2814 10.2463 80.3797 10.2332 80.487 10.2332C81.1397 10.2332 81.4661 10.6028 81.4661 11.342V13.4421H80.9229V11.4268C80.9229 11.1702 80.8759 10.9855 80.7821 10.8724C80.6882 10.7593 80.5496 10.7028 80.3663 10.7028C80.2143 10.7028 80.088 10.7387 79.9874 10.8104C79.8868 10.8822 79.8074 10.9507 79.7493 11.0159C79.7583 11.0637 79.765 11.1148 79.7694 11.1692C79.7739 11.2235 79.7762 11.2811 79.7762 11.342V13.4421H79.233ZM36.9914 17.3189H36.3342V20.019H35.7911V17.3189H35.4021V16.9667L35.7911 16.8949V16.2688C35.7911 16.0992 35.8156 15.9536 35.8648 15.8318C35.914 15.7101 35.9788 15.6101 36.0593 15.5318C36.1398 15.4535 36.2337 15.397 36.341 15.3622C36.4482 15.3274 36.5623 15.3101 36.683 15.3101C36.7992 15.3101 36.8976 15.3253 36.978 15.3557C37.0585 15.3861 37.1122 15.4101 37.139 15.4275L37.025 15.8644C36.9981 15.8471 36.9602 15.8285 36.911 15.809C36.8618 15.7894 36.8014 15.7797 36.7299 15.7797C36.6002 15.7797 36.5019 15.8188 36.4348 15.897C36.3678 15.9753 36.3342 16.1188 36.3342 16.3275V16.8884H37.0585L36.9914 17.3189ZM39.7812 20.019H39.2849V19.6668H39.2715C39.2581 19.6929 39.229 19.731 39.1843 19.7809C39.1396 19.831 39.0826 19.8788 39.0133 19.9244C38.944 19.9701 38.8602 20.0103 38.7618 20.0451C38.6635 20.0799 38.554 20.0973 38.4332 20.0973C38.2902 20.0973 38.1617 20.0766 38.0477 20.0354C37.9337 19.994 37.8364 19.9277 37.7559 19.8364C37.6755 19.7451 37.614 19.6266 37.5715 19.4809C37.5291 19.3353 37.5078 19.1559 37.5078 18.9429V16.8884H38.051V18.9037C38.051 19.1646 38.0946 19.3505 38.1818 19.4614C38.269 19.5722 38.4042 19.6277 38.5875 19.6277C38.744 19.6277 38.8758 19.5897 38.9831 19.5135C39.0904 19.4375 39.1754 19.3625 39.238 19.2885V16.8884H39.7812V20.019ZM38.4467 15.9884C38.4467 16.0884 38.4154 16.1688 38.3528 16.2297C38.2902 16.2906 38.2142 16.321 38.1248 16.321C38.0353 16.321 37.9594 16.2906 37.8968 16.2297C37.8342 16.1688 37.8029 16.0884 37.8029 15.9884C37.8029 15.8883 37.8342 15.8079 37.8968 15.747C37.9594 15.6861 38.0353 15.6557 38.1248 15.6557C38.2142 15.6557 38.2902 15.6861 38.3528 15.747C38.4154 15.8079 38.4467 15.8883 38.4467 15.9884ZM39.4794 15.9884C39.4794 16.0884 39.4481 16.1688 39.3855 16.2297C39.3229 16.2906 39.2469 16.321 39.1575 16.321C39.0681 16.321 38.9921 16.2906 38.9295 16.2297C38.8669 16.1688 38.8356 16.0884 38.8356 15.9884C38.8356 15.8883 38.8669 15.8079 38.9295 15.747C38.9921 15.6861 39.0681 15.6557 39.1575 15.6557C39.2469 15.6557 39.3229 15.6861 39.3855 15.747C39.4481 15.8079 39.4794 15.8883 39.4794 15.9884ZM42.0277 17.3515C42.0143 17.3428 41.9852 17.3319 41.9405 17.3189C41.8958 17.3058 41.8355 17.2993 41.7595 17.2993C41.5896 17.2993 41.4566 17.3439 41.3605 17.433C41.2643 17.5221 41.1962 17.6189 41.1559 17.7232V20.019H40.6127V16.8884H41.109V17.3123H41.1224C41.1448 17.2515 41.1738 17.1917 41.2096 17.133C41.2453 17.0743 41.29 17.0221 41.3437 16.9764C41.3973 16.9308 41.461 16.8949 41.5348 16.8688C41.6086 16.8428 41.6969 16.8297 41.7997 16.8297C41.8757 16.8297 41.9372 16.8362 41.9841 16.8493C42.0311 16.8623 42.0679 16.8732 42.0948 16.8819L42.0277 17.3515ZM46.7957 20.019H46.1519L45.7362 18.5776H44.3346L43.9121 20.019H43.322L44.8308 15.5188H45.2869L46.7957 20.019ZM45.6087 18.1472L45.2466 16.9145C45.1974 16.7493 45.155 16.5916 45.1192 16.4416C45.0834 16.2916 45.0633 16.1666 45.0588 16.0666H45.0454C45.041 16.1666 45.0197 16.2895 44.9818 16.4351C44.9437 16.5808 44.9002 16.7362 44.851 16.9015L44.4687 18.1472H45.6087ZM48.6667 17.3515C48.6533 17.3428 48.6242 17.3319 48.5795 17.3189C48.5349 17.3058 48.4745 17.2993 48.3985 17.2993C48.2286 17.2993 48.0956 17.3439 47.9995 17.433C47.9034 17.5221 47.8352 17.6189 47.7949 17.7232V20.019H47.2517V16.8884H47.748V17.3123H47.7614C47.7838 17.2515 47.8128 17.1917 47.8486 17.133C47.8844 17.0743 47.9291 17.0221 47.9827 16.9764C48.0363 16.9308 48.1 16.8949 48.1738 16.8688C48.2476 16.8428 48.3359 16.8297 48.4387 16.8297C48.5147 16.8297 48.5762 16.8362 48.6232 16.8493C48.6701 16.8623 48.707 16.8732 48.7338 16.8819L48.6667 17.3515ZM51.604 18.3102C51.604 18.6451 51.5637 18.9255 51.4833 19.1516C51.4028 19.3777 51.2955 19.5592 51.1614 19.6962C51.0273 19.8331 50.8708 19.9309 50.692 19.9896C50.5131 20.0484 50.3231 20.0777 50.1219 20.0777C49.9923 20.0777 49.8761 20.0658 49.7732 20.0419C49.6704 20.0179 49.581 19.9896 49.505 19.957C49.429 19.9244 49.3653 19.8908 49.3139 19.856C49.2624 19.8212 49.2233 19.7929 49.1965 19.7712V15.4079L49.7397 15.3622V17.1884H49.7531C49.7755 17.1536 49.8079 17.1145 49.8504 17.071C49.8928 17.0276 49.9453 16.9862 50.0079 16.9471C50.0705 16.908 50.1454 16.8754 50.2326 16.8493C50.3198 16.8232 50.417 16.8101 50.5243 16.8101C50.8552 16.8101 51.1178 16.9308 51.3123 17.1721C51.5068 17.4134 51.604 17.7928 51.604 18.3102ZM51.0407 18.3755C51.0407 17.9841 50.9803 17.7004 50.8596 17.5243C50.7389 17.3482 50.5735 17.2602 50.3634 17.2602C50.1935 17.2602 50.0627 17.295 49.9711 17.3645C49.8794 17.4341 49.8023 17.5058 49.7397 17.5798V19.5038C49.7799 19.5299 49.8336 19.5571 49.9006 19.5853C49.9677 19.6136 50.0482 19.6277 50.1421 19.6277C50.2717 19.6277 50.3913 19.607 50.5009 19.5657C50.6104 19.5244 50.7054 19.4549 50.7858 19.357C50.8663 19.2592 50.9289 19.1298 50.9736 18.969C51.0183 18.8081 51.0407 18.6102 51.0407 18.3755ZM54.3602 17.945C54.3602 18.0798 54.3557 18.1961 54.3468 18.2939C54.3378 18.3917 54.3289 18.4776 54.3199 18.5515H52.677C52.6948 18.9211 52.7764 19.1929 52.9218 19.3668C53.067 19.5407 53.2761 19.6277 53.5487 19.6277C53.6426 19.6277 53.7276 19.6168 53.8036 19.5951C53.8796 19.5733 53.9455 19.5472 54.0014 19.5168C54.0573 19.4864 54.1042 19.4559 54.1423 19.4255C54.1802 19.3951 54.2082 19.3711 54.2261 19.3538L54.4272 19.7255C54.4049 19.7473 54.3713 19.7788 54.3266 19.8201C54.282 19.8614 54.2216 19.9027 54.1456 19.944C54.0696 19.9853 53.9757 20.0212 53.8639 20.0516C53.7522 20.0821 53.6203 20.0973 53.4683 20.0973C53.2671 20.0973 53.0849 20.0647 52.9218 19.9995C52.7586 19.9342 52.62 19.8331 52.506 19.6962C52.392 19.5592 52.3037 19.3853 52.2411 19.1744C52.1784 18.9635 52.1472 18.7103 52.1472 18.4146C52.1472 18.1363 52.1796 17.8961 52.2444 17.6939C52.3092 17.4917 52.3976 17.3254 52.5093 17.1949C52.621 17.0645 52.7507 16.9678 52.8983 16.9047C53.0458 16.8417 53.2045 16.8101 53.3744 16.8101C53.6829 16.8101 53.9243 16.9047 54.0986 17.0938C54.273 17.283 54.3602 17.5667 54.3602 17.945ZM53.3409 17.2406C53.1486 17.2406 52.9944 17.3189 52.8781 17.4754C52.7619 17.6319 52.6948 17.858 52.677 18.1537H53.8505C53.855 18.1319 53.8584 18.1004 53.8606 18.0591C53.8628 18.0178 53.8639 17.9733 53.8639 17.9254C53.8639 17.708 53.8192 17.5395 53.7298 17.4199C53.6404 17.3004 53.5108 17.2406 53.3409 17.2406ZM55.6276 20.019H55.0844V16.8884H55.6276V20.019ZM55.3594 16.1318C55.2476 16.1318 55.1582 16.097 55.0911 16.0275C55.0241 15.9579 54.9905 15.8666 54.9905 15.7536C54.9905 15.6449 55.0241 15.5557 55.0911 15.4862C55.1582 15.4166 55.2476 15.3818 55.3594 15.3818C55.4667 15.3818 55.5539 15.4166 55.6209 15.4862C55.688 15.5557 55.7215 15.6449 55.7215 15.7536C55.7215 15.8666 55.688 15.9579 55.6209 16.0275C55.5539 16.097 55.4667 16.1318 55.3594 16.1318ZM57.8339 17.3189H57.1298V19.0538C57.1298 19.2755 57.1589 19.4266 57.217 19.507C57.2751 19.5875 57.3735 19.6277 57.512 19.6277C57.5925 19.6277 57.6618 19.6168 57.7199 19.5951C57.778 19.5733 57.8205 19.5538 57.8473 19.5364L57.9211 19.9603C57.8987 19.9777 57.8451 20.0049 57.7602 20.0419C57.6752 20.0788 57.5612 20.0973 57.4181 20.0973C57.1409 20.0973 56.9331 20.0223 56.7945 19.8723C56.6559 19.7223 56.5866 19.4734 56.5866 19.1255V17.3189H56.1976V16.9667L56.5866 16.8884L56.647 16.0144H57.1298V16.8884H57.901L57.8339 17.3189ZM62.1258 20.019H61.6296V19.6668H61.6162C61.6027 19.6929 61.5737 19.731 61.529 19.7809C61.4843 19.831 61.4273 19.8788 61.358 19.9244C61.2887 19.9701 61.2048 20.0103 61.1065 20.0451C61.0082 20.0799 60.8986 20.0973 60.7779 20.0973C60.6348 20.0973 60.5063 20.0766 60.3923 20.0354C60.2783 19.994 60.1811 19.9277 60.1006 19.8364C60.0201 19.7451 59.9586 19.6266 59.9162 19.4809C59.8737 19.3353 59.8525 19.1559 59.8525 18.9429V16.8884H60.3956V18.9037C60.3956 19.1646 60.4393 19.3505 60.5264 19.4614C60.6136 19.5722 60.7488 19.6277 60.9321 19.6277C61.0886 19.6277 61.2205 19.5897 61.3278 19.5135C61.4351 19.4375 61.52 19.3625 61.5826 19.2885V16.8884H62.1258V20.019ZM64.7144 20.019V18.0037C64.7144 17.7385 64.6685 17.5482 64.5769 17.433C64.4852 17.3178 64.3455 17.2602 64.1578 17.2602C63.9968 17.2602 63.8627 17.2993 63.7554 17.3776C63.6481 17.4558 63.5632 17.5319 63.5006 17.6058V20.019H62.9574V16.8884H63.4536V17.2406H63.467C63.4804 17.2145 63.5095 17.1765 63.5542 17.1264C63.5989 17.0765 63.6571 17.0286 63.7286 16.983C63.8001 16.9373 63.8851 16.8971 63.9834 16.8623C64.0817 16.8275 64.1935 16.8101 64.3187 16.8101C64.4618 16.8101 64.5914 16.8308 64.7077 16.8721C64.8239 16.9134 64.9223 16.9797 65.0027 17.071C65.0832 17.1623 65.1458 17.2808 65.1905 17.4265C65.2352 17.5721 65.2576 17.7515 65.2576 17.9646V20.019H64.7144ZM65.9215 18.4994C65.9215 18.182 65.9639 17.9167 66.0489 17.7037C66.1338 17.4906 66.2433 17.3189 66.3775 17.1884C66.5116 17.058 66.6636 16.9656 66.8335 16.9112C67.0034 16.8569 67.1732 16.8297 67.3431 16.8297C67.446 16.8297 67.5354 16.8373 67.6114 16.8526C67.6874 16.8677 67.75 16.8862 67.7992 16.908V15.4079L68.3424 15.3492V20.019H67.8461V19.6864H67.8327C67.8193 19.7125 67.7947 19.7483 67.7589 19.794C67.7231 19.8396 67.674 19.8853 67.6114 19.931C67.5488 19.9766 67.4706 20.0157 67.3767 20.0484C67.2828 20.081 67.1732 20.0973 67.0481 20.0973C66.8961 20.0973 66.7519 20.068 66.6156 20.0092C66.4792 19.9505 66.3596 19.8571 66.2568 19.7288C66.1539 19.6005 66.0724 19.4353 66.012 19.2331C65.9517 19.0309 65.9215 18.7863 65.9215 18.4994ZM67.1956 19.6277C67.2805 19.6277 67.3566 19.6168 67.4236 19.5951C67.4907 19.5733 67.5488 19.5461 67.598 19.5135C67.6472 19.4809 67.6885 19.4473 67.7221 19.4125C67.7556 19.3777 67.7813 19.3472 67.7992 19.3212V17.3906C67.75 17.3602 67.693 17.3341 67.6282 17.3123C67.5633 17.2906 67.4817 17.2797 67.3834 17.2797C67.2582 17.2797 67.1408 17.3004 67.0313 17.3417C66.9218 17.383 66.8268 17.4515 66.7463 17.5471C66.6658 17.6428 66.6021 17.7667 66.5552 17.9189C66.5083 18.0711 66.4848 18.2581 66.4848 18.4798C66.4848 18.6972 66.5038 18.8788 66.5418 19.0244C66.5798 19.1701 66.6323 19.2875 66.6994 19.3766C66.7664 19.4657 66.8424 19.5299 66.9274 19.569C67.0123 19.6081 67.1017 19.6277 67.1956 19.6277ZM72.4599 16.2101C72.442 16.1927 72.4118 16.1677 72.3694 16.1351C72.3269 16.1025 72.2732 16.071 72.2084 16.0405C72.1436 16.0101 72.0676 15.984 71.9804 15.9623C71.8932 15.9405 71.796 15.9297 71.6887 15.9297C71.4875 15.9297 71.3355 15.9818 71.2327 16.0862C71.1298 16.1905 71.0784 16.3123 71.0784 16.4514C71.0784 16.5384 71.0907 16.6188 71.1153 16.6927C71.1399 16.7667 71.1779 16.8395 71.2293 16.9112C71.2807 16.983 71.3444 17.0548 71.4204 17.1264C71.4965 17.1982 71.5881 17.2754 71.6954 17.358L72.0709 17.658C72.1782 17.745 72.2799 17.8341 72.3761 17.9254C72.4722 18.0167 72.5549 18.1135 72.6242 18.2156C72.6935 18.3178 72.7482 18.4287 72.7885 18.5483C72.8287 18.6679 72.8488 18.8016 72.8488 18.9494C72.8488 19.2929 72.7393 19.5701 72.5202 19.7809C72.3012 19.9918 71.9815 20.0973 71.5613 20.0973C71.3959 20.0973 71.2495 20.0821 71.122 20.0516C70.9946 20.0212 70.884 19.9842 70.7901 19.9408C70.6962 19.8973 70.618 19.8527 70.5554 19.807C70.4927 19.7614 70.4458 19.7233 70.4145 19.6929L70.6492 19.1972C70.6761 19.2233 70.7163 19.2581 70.77 19.3016C70.8236 19.3451 70.8884 19.3886 70.9644 19.432C71.0404 19.4755 71.1265 19.5125 71.2226 19.5429C71.3187 19.5733 71.4271 19.5886 71.5479 19.5886C71.7759 19.5886 71.9513 19.5331 72.0743 19.4222C72.1972 19.3113 72.2587 19.1799 72.2587 19.0277C72.2587 18.932 72.2464 18.845 72.2218 18.7668C72.1972 18.6885 72.1615 18.6135 72.1145 18.5417C72.0676 18.47 72.0083 18.3994 71.9368 18.3298C71.8653 18.2602 71.7803 18.1863 71.682 18.108L71.3064 17.8015C71.1768 17.6972 71.0628 17.5982 70.9644 17.5047C70.8661 17.4113 70.7822 17.3134 70.713 17.2112C70.6437 17.1091 70.5911 16.9982 70.5554 16.8786C70.5196 16.7591 70.5017 16.621 70.5017 16.4645C70.5017 16.321 70.5297 16.1862 70.5856 16.0601C70.6414 15.934 70.7208 15.8253 70.8236 15.734C70.9264 15.6427 71.0505 15.5709 71.1958 15.5188C71.3411 15.4666 71.5054 15.4405 71.6887 15.4405C71.8407 15.4405 71.9748 15.4546 72.091 15.4829C72.2073 15.5111 72.3068 15.5438 72.3895 15.5807C72.4722 15.6177 72.5381 15.6557 72.5873 15.6949C72.6365 15.734 72.6745 15.7623 72.7013 15.7797L72.4599 16.2101ZM73.3518 18.4537C73.3518 18.1667 73.3864 17.9189 73.4558 17.7102C73.525 17.5015 73.6189 17.3308 73.7374 17.1982C73.8559 17.0656 73.9922 16.9678 74.1465 16.9047C74.3007 16.8417 74.465 16.8101 74.6394 16.8101C74.8182 16.8101 74.9836 16.8417 75.1356 16.9047C75.2876 16.9678 75.4195 17.0656 75.5313 17.1982C75.643 17.3308 75.7313 17.5015 75.7962 17.7102C75.861 17.9189 75.8934 18.1667 75.8934 18.4537C75.8934 18.745 75.8599 18.9951 75.7928 19.2038C75.7257 19.4125 75.633 19.5831 75.5145 19.7157C75.396 19.8484 75.2586 19.9451 75.1021 20.006C74.9456 20.0669 74.7802 20.0973 74.6058 20.0973C74.427 20.0973 74.2616 20.0669 74.1096 20.006C73.9576 19.9451 73.8257 19.8484 73.7139 19.7157C73.6022 19.5831 73.5139 19.4136 73.4491 19.207C73.3842 19.0005 73.3518 18.7494 73.3518 18.4537ZM75.3301 18.4537C75.3301 18.0363 75.2675 17.733 75.1423 17.5439C75.0171 17.3547 74.8428 17.2602 74.6192 17.2602C74.3957 17.2602 74.2224 17.3547 74.0995 17.5439C73.9766 17.733 73.9151 18.0363 73.9151 18.4537C73.9151 18.8711 73.9777 19.1712 74.1029 19.3538C74.228 19.5364 74.4024 19.6277 74.6259 19.6277C74.8495 19.6277 75.0227 19.5364 75.1457 19.3538C75.2686 19.1712 75.3301 18.8711 75.3301 18.4537ZM78.3344 17.2276L77.0334 19.556V19.569H78.4216L78.3746 20.019H76.3293V19.6799L77.6705 17.3319V17.3189H76.403V16.8884H78.3344V17.2276ZM79.5616 20.019H79.0184V16.8884H79.5616V20.019ZM79.2934 16.1318C79.1816 16.1318 79.0922 16.097 79.0251 16.0275C78.9581 15.9579 78.9245 15.8666 78.9245 15.7536C78.9245 15.6449 78.9581 15.5557 79.0251 15.4862C79.0922 15.4166 79.1816 15.3818 79.2934 15.3818C79.4007 15.3818 79.4878 15.4166 79.5549 15.4862C79.622 15.5557 79.6555 15.6449 79.6555 15.7536C79.6555 15.8666 79.622 15.9579 79.5549 16.0275C79.4878 16.097 79.4007 16.1318 79.2934 16.1318ZM80.2054 19.2233C80.2054 19.0407 80.2412 18.8885 80.3127 18.7668C80.3842 18.6451 80.4803 18.5461 80.6011 18.47C80.7218 18.3939 80.8637 18.3396 81.0269 18.3069C81.1901 18.2743 81.3633 18.2581 81.5466 18.2581H81.7143V17.958C81.7143 17.6928 81.6662 17.5102 81.5701 17.4102C81.474 17.3102 81.3387 17.2602 81.1644 17.2602C81.0034 17.2602 80.8693 17.2939 80.762 17.3612C80.6547 17.4286 80.5698 17.4884 80.5072 17.5406L80.2792 17.1884C80.3149 17.1536 80.3608 17.1145 80.4167 17.071C80.4725 17.0276 80.5407 16.9862 80.6212 16.9471C80.7016 16.908 80.7933 16.8754 80.8961 16.8493C80.999 16.8232 81.1152 16.8101 81.2448 16.8101C81.5757 16.8101 81.826 16.8993 81.9959 17.0776C82.1658 17.2558 82.2507 17.5428 82.2507 17.9385V19.3668C82.2507 19.5016 82.2552 19.6331 82.2642 19.7614C82.2731 19.8897 82.282 19.9756 82.291 20.019H81.7746L81.7545 19.6734H81.7411C81.7232 19.7125 81.6964 19.757 81.6606 19.807C81.6248 19.8571 81.5801 19.9027 81.5265 19.944C81.4728 19.9853 81.408 20.0212 81.332 20.0516C81.256 20.0821 81.1666 20.0973 81.0638 20.0973C80.9431 20.0973 80.8302 20.0755 80.7251 20.0321C80.62 19.9886 80.5284 19.9277 80.4502 19.8495C80.3719 19.7712 80.3116 19.6788 80.2691 19.5722C80.2266 19.4657 80.2054 19.3494 80.2054 19.2233ZM81.1778 19.6473C81.2538 19.6473 81.3209 19.6364 81.379 19.6147C81.4371 19.5929 81.4874 19.5668 81.5299 19.5364C81.5723 19.506 81.6081 19.4723 81.6372 19.4353C81.6662 19.3983 81.6919 19.3668 81.7143 19.3407V18.6494L81.5399 18.6559C81.2806 18.6646 81.0839 18.7081 80.9498 18.7863C80.8157 18.8646 80.7486 18.9907 80.7486 19.1646C80.7486 19.3255 80.7866 19.4462 80.8626 19.5266C80.9386 19.607 81.0437 19.6473 81.1778 19.6473ZM83.6054 19.2885C83.6054 19.419 83.6244 19.5103 83.6624 19.5625C83.7004 19.6147 83.7663 19.6407 83.8602 19.6407C83.9094 19.6407 83.9508 19.6364 83.9843 19.6277C84.0178 19.619 84.0435 19.6103 84.0614 19.6016L84.1083 19.9929C84.0815 20.006 84.0323 20.0234 83.9608 20.0451C83.8893 20.0669 83.7932 20.0777 83.6724 20.0777C83.4891 20.0777 83.3416 20.0234 83.2298 19.9147C83.1181 19.806 83.0622 19.6125 83.0622 19.3342V15.4079L83.6054 15.3492V19.2885ZM86.6633 17.945C86.6633 18.0798 86.6589 18.1961 86.6499 18.2939C86.641 18.3917 86.6321 18.4776 86.6231 18.5515H84.9801C84.998 18.9211 85.0796 19.1929 85.2249 19.3668C85.3702 19.5407 85.5792 19.6277 85.8519 19.6277C85.9458 19.6277 86.0307 19.6168 86.1067 19.5951C86.1828 19.5733 86.2487 19.5472 86.3046 19.5168C86.3604 19.4864 86.4074 19.4559 86.4454 19.4255C86.4834 19.3951 86.5114 19.3711 86.5292 19.3538L86.7304 19.7255C86.708 19.7473 86.6745 19.7788 86.6298 19.8201C86.5851 19.8614 86.5248 19.9027 86.4488 19.944C86.3727 19.9853 86.2788 20.0212 86.1671 20.0516C86.0553 20.0821 85.9234 20.0973 85.7714 20.0973C85.5703 20.0973 85.3881 20.0647 85.2249 19.9995C85.0617 19.9342 84.9231 19.8331 84.8091 19.6962C84.6951 19.5592 84.6068 19.3853 84.5442 19.1744C84.4816 18.9635 84.4503 18.7103 84.4503 18.4146C84.4503 18.1363 84.4827 17.8961 84.5476 17.6939C84.6124 17.4917 84.7007 17.3254 84.8125 17.1949C84.9242 17.0645 85.0539 16.9678 85.2014 16.9047C85.349 16.8417 85.5076 16.8101 85.6776 16.8101C85.986 16.8101 86.2275 16.9047 86.4018 17.0938C86.5762 17.283 86.6633 17.5667 86.6633 17.945ZM85.644 17.2406C85.4518 17.2406 85.2976 17.3189 85.1813 17.4754C85.065 17.6319 84.998 17.858 84.9801 18.1537H86.1537C86.1581 18.1319 86.1615 18.1004 86.1638 18.0591C86.166 18.0178 86.1671 17.9733 86.1671 17.9254C86.1671 17.708 86.1224 17.5395 86.033 17.4199C85.9435 17.3004 85.8139 17.2406 85.644 17.2406ZM88.7758 17.5211C88.74 17.4819 88.6752 17.4286 88.5813 17.3612C88.4874 17.2939 88.3644 17.2602 88.2125 17.2602C88.0694 17.2602 87.9599 17.2928 87.8839 17.358C87.8078 17.4232 87.7699 17.5015 87.7699 17.5928C87.7699 17.7102 87.8045 17.8069 87.8738 17.883C87.9431 17.9591 88.0493 18.0406 88.1923 18.1276L88.3935 18.245C88.6126 18.3711 88.7847 18.507 88.9099 18.6526C89.035 18.7983 89.0977 18.9863 89.0977 19.2168C89.0977 19.4646 89.0093 19.6734 88.8328 19.8429C88.6562 20.0125 88.4025 20.0973 88.0716 20.0973C87.942 20.0973 87.828 20.0842 87.7296 20.0582C87.6313 20.0321 87.5452 20.0017 87.4715 19.9668C87.3977 19.932 87.3362 19.894 87.287 19.8527C87.2378 19.8114 87.1976 19.7734 87.1663 19.7386L87.4278 19.3212C87.4547 19.3472 87.4871 19.3777 87.5251 19.4125C87.5631 19.4473 87.6089 19.4809 87.6626 19.5135C87.7162 19.5461 87.7766 19.5733 87.8436 19.5951C87.9107 19.6168 87.9889 19.6277 88.0783 19.6277C88.2393 19.6277 88.3622 19.5929 88.4472 19.5233C88.5321 19.4538 88.5746 19.369 88.5746 19.269C88.5746 19.195 88.5645 19.1309 88.5444 19.0766C88.5243 19.0222 88.4941 18.9733 88.4539 18.9298C88.4136 18.8864 88.3644 18.845 88.3063 18.8059C88.2482 18.7668 88.1812 18.7233 88.1052 18.6755L87.904 18.5515C87.7028 18.4254 87.5452 18.2929 87.4312 18.1537C87.3172 18.0145 87.2602 17.8363 87.2602 17.6189C87.2602 17.5015 87.2837 17.3938 87.3306 17.296C87.3776 17.1982 87.4435 17.1135 87.5284 17.0417C87.6134 16.9699 87.7129 16.9134 87.8269 16.8721C87.9409 16.8308 88.0627 16.8101 88.1923 16.8101C88.3175 16.8101 88.4248 16.8221 88.5142 16.846C88.6037 16.8699 88.6808 16.9004 88.7456 16.9373C88.8104 16.9743 88.8641 17.0112 88.9066 17.0482C88.949 17.0852 88.9837 17.1167 89.0105 17.1428L88.7758 17.5211Z" fill="black"/>
<path d="M20.9483 13.08C20.9635 12.9573 20.9725 12.8307 20.9725 12.7013C20.9725 12.6306 20.9731 12.5484 20.9641 12.4552C22.0872 12.4399 23.0723 11.6529 23.0723 10.748C23.0723 10.2876 22.7634 9.94012 22.5893 9.7324C22.6282 9.72418 22.6676 9.71541 22.7077 9.70609C22.8722 9.8453 23.3388 10.3397 23.3388 10.9639C23.3388 12.0497 22.223 13.0576 20.9483 13.08ZM19.8167 9.29887C19.7959 9.17774 19.7485 9.06813 19.6764 8.97386C19.6803 8.86315 19.7271 8.75737 19.9103 8.84451C19.8111 8.94317 19.8877 9.118 19.8877 9.118C19.8877 9.118 20.0906 9.02647 20.0483 8.89603C20.3493 8.96618 20.1329 9.35916 19.8167 9.29887ZM19.5558 9.85626C19.5158 9.69403 19.4301 9.52742 19.3214 9.40191C19.2222 9.28791 19.0582 9.15253 18.8373 9.15253C18.7364 9.15253 18.5674 9.19857 18.4597 9.24296C18.4197 9.17171 18.3414 9.00017 18.3414 8.92289C18.3414 8.84342 18.4794 8.76285 18.7437 8.76285C19.3253 8.76285 19.6725 9.01825 19.6725 9.44685C19.6725 9.59757 19.611 9.73459 19.5558 9.85626ZM21.0492 17.1457C21.1168 17.1457 21.1495 17.1561 21.1889 17.1703C21.3563 17.6132 22.0015 18.449 22.0286 18.4846L22.0342 18.4923L22.0438 18.4901C22.2022 18.4655 22.6062 18.4063 22.9443 18.4063H22.9522C22.9889 18.4063 23.0306 18.4063 23.057 18.4315C23.079 18.4528 23.0897 18.4901 23.0897 18.5433C23.0897 18.6249 23.0542 18.7647 23.0114 18.8244C22.8931 18.6989 22.7009 18.6425 22.3932 18.6425C22.3008 18.6425 22.1915 18.6693 22.1323 18.6847L22.1081 18.6896L22.0804 18.6967L22.258 18.8694C22.5318 19.1358 22.7685 19.3654 22.7685 19.5183C22.7685 19.6104 22.6761 19.7304 22.5916 19.7836C22.573 19.5035 22.2822 19.1286 21.9987 18.9187L21.9745 18.9012L21.97 18.9998C21.966 19.0667 21.9598 19.167 21.9598 19.2744C21.9598 19.8077 21.9041 19.8888 21.7141 19.8888C21.6848 19.8888 21.6403 19.8806 21.6127 19.8707C21.7198 19.7419 21.762 19.572 21.762 19.2739L21.7604 19.1363L21.7587 19.0256C21.7587 18.9034 21.7716 18.8129 21.7818 18.74L21.7874 18.6989L21.7575 18.6951C21.6685 18.683 21.5034 18.6611 21.3771 18.6611C21.1061 18.6611 20.9224 18.6852 20.7894 18.8069C20.7015 18.7378 20.6113 18.6189 20.6113 18.5438C20.6113 18.4326 20.6823 18.4238 20.7759 18.4238C20.8232 18.4238 20.8671 18.4304 20.928 18.4375C21.0447 18.4545 21.2199 18.4797 21.5811 18.4797H21.6037L21.5964 18.4583C21.5051 18.2035 21.2537 17.833 20.8508 17.3567C20.8869 17.229 20.9224 17.1457 21.0492 17.1457ZM17.5699 18.4583L17.5626 18.4797H17.5851C17.9458 18.4797 18.1216 18.4545 18.2383 18.4375C18.2991 18.4304 18.3431 18.4238 18.3904 18.4238C18.4834 18.4238 18.555 18.4326 18.555 18.5438C18.555 18.6189 18.4648 18.7378 18.3774 18.8069C18.2439 18.6852 18.0602 18.6611 17.7897 18.6611C17.6629 18.6611 17.4972 18.683 17.4087 18.6951L17.3946 18.6967L17.3789 18.6989L17.3839 18.74C17.3946 18.8129 17.4076 18.9034 17.4076 19.0256L17.4059 19.1363L17.4042 19.2739C17.4042 19.572 17.4465 19.7419 17.5541 19.8707C17.5259 19.8806 17.4814 19.8888 17.4521 19.8888C17.2616 19.8888 17.2064 19.8077 17.2064 19.2744C17.2064 19.167 17.2008 19.0667 17.1968 18.9998L17.1912 18.9006L17.1675 18.9187C16.8846 19.1286 16.5927 19.5035 16.5753 19.7836C16.4902 19.7304 16.3977 19.6104 16.3977 19.5183C16.3977 19.3654 16.6344 19.1358 16.9083 18.8694L17.0858 18.6967L17.034 18.6847C16.9748 18.6693 16.8655 18.6425 16.7725 18.6425C16.4654 18.6425 16.2738 18.6989 16.1549 18.8244C16.112 18.7647 16.0765 18.6249 16.0765 18.5433C16.0765 18.4901 16.0872 18.4528 16.1092 18.4315C16.1357 18.4063 16.1774 18.4063 16.214 18.4063H16.2219C16.56 18.4063 16.9647 18.4655 17.1225 18.4901L17.132 18.4923L17.1377 18.4846C17.1653 18.449 17.81 17.6132 17.9779 17.1703C18.0162 17.1561 18.0495 17.1457 18.1171 17.1457C18.2439 17.1457 18.2794 17.229 18.316 17.3567C17.9125 17.833 17.6612 18.2035 17.5699 18.4583ZM15.8274 10.9639C15.8274 10.3397 16.2946 9.8453 16.4592 9.70609C16.4986 9.71541 16.5381 9.72418 16.5775 9.7324C16.4028 9.94012 16.094 10.2876 16.094 10.748C16.094 11.6622 17.0982 12.4558 18.2354 12.4558C18.2281 12.5342 18.2242 12.6164 18.2242 12.7013C18.2242 12.8362 18.2321 12.9617 18.2456 13.08C16.9596 13.0724 15.8274 12.0573 15.8274 10.9639ZM24.4529 12.8893C25.03 13.7767 25.4814 13.7619 26.1633 13.7619C25.5992 13.3415 25.2261 12.8027 25.048 12.5276L23.9942 10.8877C23.8916 10.3813 23.6223 9.90778 23.2188 9.55537C23.3546 9.50549 23.4673 9.45288 23.5349 9.403C22.8468 9.403 22.165 9.06319 21.7897 9.06319C21.5485 9.06319 21.3935 9.2035 21.3935 9.38875C21.4087 9.59538 21.6274 9.80529 22.0314 9.80529C22.1227 9.80529 22.2399 9.79378 22.3684 9.77295C22.5871 10.0695 22.7634 10.3375 22.7634 10.72C22.7634 11.438 21.8809 11.9976 20.99 11.9976C20.9393 11.9976 20.8914 11.9954 20.8412 11.9921C20.7606 11.814 20.4918 11.5153 20.4918 11.1755C20.4918 10.6049 20.8745 10.1391 20.8745 9.574C20.8745 9.22268 20.6987 9.0051 20.631 8.91467C20.7404 8.81601 20.8598 8.69489 20.888 8.61158C20.8243 8.63844 20.7488 8.64172 20.6389 8.64172C20.2118 8.64172 19.8635 8.53375 19.5242 8.53375C19.3304 8.53375 19.2785 8.59185 19.2785 8.6472C19.2785 8.66748 19.2814 8.68831 19.287 8.69818C19.2149 8.67077 19.1472 8.65269 19.0667 8.63844C18.9663 8.6198 18.8587 8.61048 18.7437 8.61048C18.3312 8.61048 18.1847 8.77874 18.1847 8.92289C18.1847 9.04456 18.2833 9.26708 18.3955 9.43698C18.5561 9.35806 18.7494 9.3049 18.8373 9.3049C19.0565 9.3049 19.2509 9.50769 19.3541 9.74774C19.207 9.76528 19.1788 9.77131 19.03 9.77131C18.6282 9.77131 18.3549 9.63155 18.2986 9.63155C18.2935 9.63155 18.2828 9.63429 18.2828 9.64306C18.2828 9.69787 18.3966 9.84256 18.6209 9.92203C18.9167 10.0273 19.3597 10.0711 19.4335 10.0832C19.4335 10.0958 19.3586 10.2317 19.2746 10.258C19.2571 10.2635 19.243 10.264 19.2222 10.2596C18.9134 10.2005 18.8271 10.1752 18.4355 10.0305C18.4237 10.0262 18.4163 10.0333 18.4163 10.0453C18.4163 10.1961 18.8176 10.5288 19.1771 10.6565C18.8767 11.0291 18.502 11.4106 18.325 11.9921C18.2749 11.9954 18.2264 11.9976 18.1763 11.9976C17.2853 11.9976 16.4028 11.438 16.4028 10.72C16.4028 10.3375 16.5792 10.0695 16.7979 9.77295C16.9263 9.79378 17.043 9.80529 17.1349 9.80529C17.5389 9.80529 17.7576 9.59538 17.7733 9.38875C17.7733 9.2035 17.6184 9.06319 17.3766 9.06319C17.0013 9.06319 16.32 9.403 15.6308 9.403C15.699 9.45288 15.8117 9.50549 15.9469 9.55537C15.544 9.90778 15.2746 10.3813 15.1721 10.8877L14.1182 12.5276C13.9407 12.8027 13.5665 13.3415 13.0024 13.7619C13.6843 13.7619 14.1363 13.7767 14.7133 12.8893L15.2538 12.0486C15.2938 12.1576 15.3428 12.264 15.4009 12.3681L14.3262 14.0403C14.1475 14.3176 13.7767 14.8514 13.2104 15.2745C13.8923 15.2745 14.3442 15.2899 14.9213 14.4031L15.846 12.9628C15.9154 13.0346 15.9881 13.1047 16.0647 13.1716L14.7595 15.2038C14.5803 15.4817 14.2118 16.0145 13.6443 16.437C14.3262 16.437 14.7781 16.4529 15.3546 15.5656L16.6271 13.5843C16.7111 13.6358 16.7967 13.6857 16.8858 13.7328L15.3321 16.1504C15.1529 16.4283 14.7843 16.9593 14.2169 17.3836C14.8987 17.3836 15.3507 17.3989 15.9278 16.5121L17.5271 14.0222C17.6217 14.0573 17.7175 14.0913 17.815 14.1214L16.0078 16.9347C15.8314 17.2087 15.4544 17.7497 14.8931 18.1678C15.5744 18.1678 16.0269 18.1832 16.6034 17.2964L18.5296 14.2984C18.5493 14.3017 18.5685 14.3045 18.5876 14.3083C18.6401 14.4705 18.6767 14.6218 18.6767 14.7725C18.6767 15.7147 18.041 16.5466 17.278 17.189C17.327 17.2098 17.4121 17.2169 17.4904 17.2169C17.6482 17.2169 17.7497 17.2087 17.8212 17.1967C17.6443 17.5874 17.2645 18.0922 17.0729 18.3531C16.8232 18.3093 16.4597 18.2753 16.2219 18.2753C15.9728 18.2753 15.9447 18.4167 15.9447 18.5433C15.9447 18.7631 16.0506 18.9379 16.1735 19.0355C16.2197 18.9231 16.3127 18.7729 16.7725 18.7729C16.7815 18.7729 16.7973 18.774 16.8187 18.7757C16.6846 18.9209 16.2636 19.2519 16.2636 19.5183C16.2636 19.6948 16.4626 19.9595 16.7246 19.9595C16.7094 19.9025 16.7111 19.8504 16.7111 19.811C16.7111 19.595 16.9077 19.3424 17.074 19.1659C17.0689 19.2185 17.0717 19.213 17.0717 19.2744C17.0717 19.7847 17.1191 20.0193 17.4521 20.0193C17.6155 20.0193 17.7283 19.9321 17.7671 19.9058C17.5507 19.7123 17.5395 19.56 17.5395 19.2739C17.54 19.1993 17.5406 19.1264 17.5417 19.0261C17.5423 18.9604 17.5412 18.8738 17.5305 18.8113C17.6494 18.7954 17.6978 18.7954 17.7897 18.7954C17.7897 18.7954 18.2625 18.7587 18.3769 18.9982C18.5054 18.8836 18.6919 18.722 18.6919 18.5438C18.6919 18.426 18.6344 18.2928 18.3904 18.2928C18.298 18.2928 18.0078 18.3476 17.7649 18.3476C17.8303 18.2068 18.1205 17.7935 18.3724 17.4937C18.4107 17.6099 18.4699 17.7354 18.6017 17.8385C18.6203 17.6455 18.7364 17.0355 19.0464 16.6787C19.0824 16.9199 19.1309 17.1671 19.1309 17.6883C19.1309 18.9565 18.8176 19.8932 18.152 20.0719C18.2388 20.2182 18.422 20.3503 18.6119 20.3503C18.8553 20.3503 18.9878 20.0823 19.123 19.8296C19.1934 20.016 19.3879 20.4731 19.5828 20.4731C19.7778 20.4731 19.9728 20.016 20.0433 19.8296C20.1779 20.0823 20.3109 20.3503 20.5544 20.3503C20.7443 20.3503 20.9274 20.2182 21.0142 20.0719C20.3487 19.8932 20.0348 18.9565 20.0348 17.6883C20.0348 17.1671 20.0833 16.9199 20.1193 16.6787C20.4298 17.0355 20.5465 17.6455 20.564 17.8385C20.6964 17.7354 20.7561 17.6099 20.7939 17.4937C21.0452 17.7935 21.336 18.2068 21.4014 18.3476C21.1585 18.3476 20.8677 18.2928 20.7759 18.2928C20.5324 18.2928 20.4749 18.426 20.4749 18.5438C20.4749 18.722 20.6615 18.8836 20.7899 18.9982C20.9032 18.7587 21.3771 18.7954 21.3771 18.7954C21.4684 18.7954 21.5169 18.7954 21.6364 18.8113C21.6251 18.8738 21.6245 18.9604 21.6251 19.0261C21.6262 19.1264 21.6262 19.1993 21.6268 19.2739C21.6268 19.56 21.6155 19.7123 21.3991 19.9058C21.438 19.9321 21.5507 20.0193 21.7141 20.0193C22.0472 20.0193 22.0951 19.7847 22.0951 19.2744C22.0951 19.213 22.0968 19.2185 22.0923 19.1659C22.2585 19.3424 22.4552 19.595 22.4552 19.811C22.4552 19.8504 22.4574 19.9025 22.4411 19.9595C22.7037 19.9595 22.9032 19.6948 22.9032 19.5183C22.9032 19.2519 22.4822 18.9209 22.347 18.7757C22.369 18.774 22.3847 18.7729 22.3932 18.7729C22.8536 18.7729 22.9466 18.9231 22.9928 19.0355C23.1157 18.9379 23.2216 18.7631 23.2216 18.5433C23.2216 18.4167 23.1934 18.2753 22.9443 18.2753C22.7065 18.2753 22.3436 18.3093 22.0934 18.3531C21.9012 18.0922 21.5225 17.5874 21.345 17.1967C21.4166 17.2087 21.5186 17.2169 21.6758 17.2169C21.7547 17.2169 21.8392 17.2098 21.8883 17.189C21.1252 16.5466 20.4896 15.7147 20.4896 14.7725C20.4896 14.6218 20.5262 14.4705 20.5786 14.3083C20.5972 14.3045 20.6175 14.3017 20.6367 14.2984L22.5628 17.2964C23.1393 18.1832 23.5918 18.1678 24.2732 18.1678C23.7119 17.7497 23.3349 17.2087 23.1585 16.9347L21.3507 14.1214C21.4487 14.0913 21.5451 14.0573 21.6398 14.0222L23.2385 16.5121C23.8156 17.3989 24.2675 17.3836 24.9494 17.3836C24.3819 16.9593 24.0134 16.4283 23.8342 16.1504L22.2811 13.7328C22.369 13.6857 22.4552 13.6358 22.5386 13.5843L23.8116 15.5656C24.3887 16.4529 24.8401 16.437 25.522 16.437C24.9545 16.0145 24.5865 15.4817 24.4067 15.2038L23.1016 13.1716C23.1782 13.1047 23.2515 13.0346 23.3197 12.9628L24.2455 14.4031C24.822 15.2899 25.274 15.2745 25.9559 15.2745C25.389 14.8514 25.0193 14.3176 24.8401 14.0403L23.766 12.3681C23.8235 12.264 23.8725 12.1576 23.9131 12.0486L24.4529 12.8893Z" fill="black"/>
<path d="M31.5581 20.0193H29.5857V9.05774H31.5581V20.0193Z" fill="black"/>
<path d="M31.5581 30.9808H29.5857V20.0192H31.5581V30.9808Z" fill="#FF0000"/>
<path d="M31.5581 41.9423H29.5857V30.9808H31.5581V41.9423Z" fill="#FFCC00"/>
</svg>
