<?xml version="1.0" encoding="utf-8"?>
<svg width="360" height="360" viewBox="0 0 360 360"
		 xmlns="http://www.w3.org/2000/svg" xmlns:xlink="http://www.w3.org/1999/xlink" xmlns:ev="http://www.w3.org/2001/xml-events">
<rect x="0" y="0" width="360" height="360" fill="#ffffff"/>
<defs>
<rect id="p" width="8" height="8"/>
</defs>
<g fill="#000000">
<use xlink:href="#p" x="32" y="32"/>
<use xlink:href="#p" x="32" y="40"/>
<use xlink:href="#p" x="32" y="48"/>
<use xlink:href="#p" x="32" y="56"/>
<use xlink:href="#p" x="32" y="64"/>
<use xlink:href="#p" x="32" y="72"/>
<use xlink:href="#p" x="32" y="80"/>
<use xlink:href="#p" x="32" y="96"/>
<use xlink:href="#p" x="32" y="104"/>
<use xlink:href="#p" x="32" y="144"/>
<use xlink:href="#p" x="32" y="184"/>
<use xlink:href="#p" x="32" y="192"/>
<use xlink:href="#p" x="32" y="216"/>
<use xlink:href="#p" x="32" y="272"/>
<use xlink:href="#p" x="32" y="280"/>
<use xlink:href="#p" x="32" y="288"/>
<use xlink:href="#p" x="32" y="296"/>
<use xlink:href="#p" x="32" y="304"/>
<use xlink:href="#p" x="32" y="312"/>
<use xlink:href="#p" x="32" y="320"/>
<use xlink:href="#p" x="40" y="32"/>
<use xlink:href="#p" x="40" y="80"/>
<use xlink:href="#p" x="40" y="96"/>
<use xlink:href="#p" x="40" y="112"/>
<use xlink:href="#p" x="40" y="120"/>
<use xlink:href="#p" x="40" y="136"/>
<use xlink:href="#p" x="40" y="144"/>
<use xlink:href="#p" x="40" y="168"/>
<use xlink:href="#p" x="40" y="200"/>
<use xlink:href="#p" x="40" y="208"/>
<use xlink:href="#p" x="40" y="216"/>
<use xlink:href="#p" x="40" y="224"/>
<use xlink:href="#p" x="40" y="248"/>
<use xlink:href="#p" x="40" y="256"/>
<use xlink:href="#p" x="40" y="272"/>
<use xlink:href="#p" x="40" y="320"/>
<use xlink:href="#p" x="48" y="32"/>
<use xlink:href="#p" x="48" y="48"/>
<use xlink:href="#p" x="48" y="56"/>
<use xlink:href="#p" x="48" y="64"/>
<use xlink:href="#p" x="48" y="80"/>
<use xlink:href="#p" x="48" y="152"/>
<use xlink:href="#p" x="48" y="160"/>
<use xlink:href="#p" x="48" y="168"/>
<use xlink:href="#p" x="48" y="184"/>
<use xlink:href="#p" x="48" y="200"/>
<use xlink:href="#p" x="48" y="208"/>
<use xlink:href="#p" x="48" y="216"/>
<use xlink:href="#p" x="48" y="224"/>
<use xlink:href="#p" x="48" y="232"/>
<use xlink:href="#p" x="48" y="256"/>
<use xlink:href="#p" x="48" y="272"/>
<use xlink:href="#p" x="48" y="288"/>
<use xlink:href="#p" x="48" y="296"/>
<use xlink:href="#p" x="48" y="304"/>
<use xlink:href="#p" x="48" y="320"/>
<use xlink:href="#p" x="56" y="32"/>
<use xlink:href="#p" x="56" y="48"/>
<use xlink:href="#p" x="56" y="56"/>
<use xlink:href="#p" x="56" y="64"/>
<use xlink:href="#p" x="56" y="80"/>
<use xlink:href="#p" x="56" y="96"/>
<use xlink:href="#p" x="56" y="104"/>
<use xlink:href="#p" x="56" y="168"/>
<use xlink:href="#p" x="56" y="176"/>
<use xlink:href="#p" x="56" y="184"/>
<use xlink:href="#p" x="56" y="192"/>
<use xlink:href="#p" x="56" y="208"/>
<use xlink:href="#p" x="56" y="216"/>
<use xlink:href="#p" x="56" y="256"/>
<use xlink:href="#p" x="56" y="272"/>
<use xlink:href="#p" x="56" y="288"/>
<use xlink:href="#p" x="56" y="296"/>
<use xlink:href="#p" x="56" y="304"/>
<use xlink:href="#p" x="56" y="320"/>
<use xlink:href="#p" x="64" y="32"/>
<use xlink:href="#p" x="64" y="48"/>
<use xlink:href="#p" x="64" y="56"/>
<use xlink:href="#p" x="64" y="64"/>
<use xlink:href="#p" x="64" y="80"/>
<use xlink:href="#p" x="64" y="96"/>
<use xlink:href="#p" x="64" y="112"/>
<use xlink:href="#p" x="64" y="120"/>
<use xlink:href="#p" x="64" y="152"/>
<use xlink:href="#p" x="64" y="160"/>
<use xlink:href="#p" x="64" y="176"/>
<use xlink:href="#p" x="64" y="192"/>
<use xlink:href="#p" x="64" y="200"/>
<use xlink:href="#p" x="64" y="208"/>
<use xlink:href="#p" x="64" y="216"/>
<use xlink:href="#p" x="64" y="232"/>
<use xlink:href="#p" x="64" y="256"/>
<use xlink:href="#p" x="64" y="272"/>
<use xlink:href="#p" x="64" y="288"/>
<use xlink:href="#p" x="64" y="296"/>
<use xlink:href="#p" x="64" y="304"/>
<use xlink:href="#p" x="64" y="320"/>
<use xlink:href="#p" x="72" y="32"/>
<use xlink:href="#p" x="72" y="80"/>
<use xlink:href="#p" x="72" y="112"/>
<use xlink:href="#p" x="72" y="120"/>
<use xlink:href="#p" x="72" y="128"/>
<use xlink:href="#p" x="72" y="136"/>
<use xlink:href="#p" x="72" y="144"/>
<use xlink:href="#p" x="72" y="152"/>
<use xlink:href="#p" x="72" y="168"/>
<use xlink:href="#p" x="72" y="176"/>
<use xlink:href="#p" x="72" y="200"/>
<use xlink:href="#p" x="72" y="224"/>
<use xlink:href="#p" x="72" y="240"/>
<use xlink:href="#p" x="72" y="248"/>
<use xlink:href="#p" x="72" y="272"/>
<use xlink:href="#p" x="72" y="320"/>
<use xlink:href="#p" x="80" y="32"/>
<use xlink:href="#p" x="80" y="40"/>
<use xlink:href="#p" x="80" y="48"/>
<use xlink:href="#p" x="80" y="56"/>
<use xlink:href="#p" x="80" y="64"/>
<use xlink:href="#p" x="80" y="72"/>
<use xlink:href="#p" x="80" y="80"/>
<use xlink:href="#p" x="80" y="96"/>
<use xlink:href="#p" x="80" y="112"/>
<use xlink:href="#p" x="80" y="128"/>
<use xlink:href="#p" x="80" y="144"/>
<use xlink:href="#p" x="80" y="160"/>
<use xlink:href="#p" x="80" y="176"/>
<use xlink:href="#p" x="80" y="192"/>
<use xlink:href="#p" x="80" y="208"/>
<use xlink:href="#p" x="80" y="224"/>
<use xlink:href="#p" x="80" y="240"/>
<use xlink:href="#p" x="80" y="256"/>
<use xlink:href="#p" x="80" y="272"/>
<use xlink:href="#p" x="80" y="280"/>
<use xlink:href="#p" x="80" y="288"/>
<use xlink:href="#p" x="80" y="296"/>
<use xlink:href="#p" x="80" y="304"/>
<use xlink:href="#p" x="80" y="312"/>
<use xlink:href="#p" x="80" y="320"/>
<use xlink:href="#p" x="88" y="104"/>
<use xlink:href="#p" x="88" y="112"/>
<use xlink:href="#p" x="88" y="120"/>
<use xlink:href="#p" x="88" y="128"/>
<use xlink:href="#p" x="88" y="136"/>
<use xlink:href="#p" x="88" y="144"/>
<use xlink:href="#p" x="88" y="168"/>
<use xlink:href="#p" x="88" y="184"/>
<use xlink:href="#p" x="88" y="192"/>
<use xlink:href="#p" x="88" y="200"/>
<use xlink:href="#p" x="88" y="208"/>
<use xlink:href="#p" x="88" y="216"/>
<use xlink:href="#p" x="88" y="232"/>
<use xlink:href="#p" x="88" y="248"/>
<use xlink:href="#p" x="96" y="32"/>
<use xlink:href="#p" x="96" y="80"/>
<use xlink:href="#p" x="96" y="88"/>
<use xlink:href="#p" x="96" y="120"/>
<use xlink:href="#p" x="96" y="128"/>
<use xlink:href="#p" x="96" y="136"/>
<use xlink:href="#p" x="96" y="144"/>
<use xlink:href="#p" x="96" y="152"/>
<use xlink:href="#p" x="96" y="160"/>
<use xlink:href="#p" x="96" y="168"/>
<use xlink:href="#p" x="96" y="176"/>
<use xlink:href="#p" x="96" y="184"/>
<use xlink:href="#p" x="96" y="192"/>
<use xlink:href="#p" x="96" y="208"/>
<use xlink:href="#p" x="96" y="216"/>
<use xlink:href="#p" x="96" y="232"/>
<use xlink:href="#p" x="96" y="248"/>
<use xlink:href="#p" x="96" y="264"/>
<use xlink:href="#p" x="96" y="288"/>
<use xlink:href="#p" x="96" y="296"/>
<use xlink:href="#p" x="96" y="312"/>
<use xlink:href="#p" x="96" y="320"/>
<use xlink:href="#p" x="104" y="32"/>
<use xlink:href="#p" x="104" y="48"/>
<use xlink:href="#p" x="104" y="72"/>
<use xlink:href="#p" x="104" y="88"/>
<use xlink:href="#p" x="104" y="96"/>
<use xlink:href="#p" x="104" y="112"/>
<use xlink:href="#p" x="104" y="120"/>
<use xlink:href="#p" x="104" y="128"/>
<use xlink:href="#p" x="104" y="136"/>
<use xlink:href="#p" x="104" y="144"/>
<use xlink:href="#p" x="104" y="192"/>
<use xlink:href="#p" x="104" y="224"/>
<use xlink:href="#p" x="104" y="240"/>
<use xlink:href="#p" x="104" y="256"/>
<use xlink:href="#p" x="104" y="304"/>
<use xlink:href="#p" x="104" y="312"/>
<use xlink:href="#p" x="112" y="32"/>
<use xlink:href="#p" x="112" y="56"/>
<use xlink:href="#p" x="112" y="64"/>
<use xlink:href="#p" x="112" y="80"/>
<use xlink:href="#p" x="112" y="104"/>
<use xlink:href="#p" x="112" y="112"/>
<use xlink:href="#p" x="112" y="144"/>
<use xlink:href="#p" x="112" y="168"/>
<use xlink:href="#p" x="112" y="176"/>
<use xlink:href="#p" x="112" y="192"/>
<use xlink:href="#p" x="112" y="224"/>
<use xlink:href="#p" x="112" y="232"/>
<use xlink:href="#p" x="112" y="240"/>
<use xlink:href="#p" x="112" y="264"/>
<use xlink:href="#p" x="112" y="296"/>
<use xlink:href="#p" x="112" y="312"/>
<use xlink:href="#p" x="120" y="32"/>
<use xlink:href="#p" x="120" y="40"/>
<use xlink:href="#p" x="120" y="48"/>
<use xlink:href="#p" x="120" y="56"/>
<use xlink:href="#p" x="120" y="64"/>
<use xlink:href="#p" x="120" y="72"/>
<use xlink:href="#p" x="120" y="152"/>
<use xlink:href="#p" x="120" y="160"/>
<use xlink:href="#p" x="120" y="176"/>
<use xlink:href="#p" x="120" y="200"/>
<use xlink:href="#p" x="120" y="208"/>
<use xlink:href="#p" x="120" y="216"/>
<use xlink:href="#p" x="120" y="224"/>
<use xlink:href="#p" x="120" y="232"/>
<use xlink:href="#p" x="120" y="248"/>
<use xlink:href="#p" x="120" y="272"/>
<use xlink:href="#p" x="120" y="280"/>
<use xlink:href="#p" x="120" y="296"/>
<use xlink:href="#p" x="120" y="304"/>
<use xlink:href="#p" x="120" y="312"/>
<use xlink:href="#p" x="120" y="320"/>
<use xlink:href="#p" x="128" y="40"/>
<use xlink:href="#p" x="128" y="64"/>
<use xlink:href="#p" x="128" y="80"/>
<use xlink:href="#p" x="128" y="88"/>
<use xlink:href="#p" x="128" y="96"/>
<use xlink:href="#p" x="128" y="112"/>
<use xlink:href="#p" x="128" y="128"/>
<use xlink:href="#p" x="128" y="136"/>
<use xlink:href="#p" x="128" y="144"/>
<use xlink:href="#p" x="128" y="160"/>
<use xlink:href="#p" x="128" y="176"/>
<use xlink:href="#p" x="128" y="192"/>
<use xlink:href="#p" x="128" y="208"/>
<use xlink:href="#p" x="128" y="216"/>
<use xlink:href="#p" x="128" y="240"/>
<use xlink:href="#p" x="128" y="256"/>
<use xlink:href="#p" x="128" y="264"/>
<use xlink:href="#p" x="128" y="272"/>
<use xlink:href="#p" x="128" y="280"/>
<use xlink:href="#p" x="128" y="320"/>
<use xlink:href="#p" x="136" y="32"/>
<use xlink:href="#p" x="136" y="48"/>
<use xlink:href="#p" x="136" y="56"/>
<use xlink:href="#p" x="136" y="88"/>
<use xlink:href="#p" x="136" y="112"/>
<use xlink:href="#p" x="136" y="136"/>
<use xlink:href="#p" x="136" y="160"/>
<use xlink:href="#p" x="136" y="184"/>
<use xlink:href="#p" x="136" y="200"/>
<use xlink:href="#p" x="136" y="224"/>
<use xlink:href="#p" x="136" y="232"/>
<use xlink:href="#p" x="136" y="240"/>
<use xlink:href="#p" x="136" y="256"/>
<use xlink:href="#p" x="136" y="272"/>
<use xlink:href="#p" x="136" y="280"/>
<use xlink:href="#p" x="144" y="40"/>
<use xlink:href="#p" x="144" y="56"/>
<use xlink:href="#p" x="144" y="72"/>
<use xlink:href="#p" x="144" y="80"/>
<use xlink:href="#p" x="144" y="88"/>
<use xlink:href="#p" x="144" y="128"/>
<use xlink:href="#p" x="144" y="144"/>
<use xlink:href="#p" x="144" y="176"/>
<use xlink:href="#p" x="144" y="184"/>
<use xlink:href="#p" x="144" y="200"/>
<use xlink:href="#p" x="144" y="216"/>
<use xlink:href="#p" x="144" y="248"/>
<use xlink:href="#p" x="144" y="272"/>
<use xlink:href="#p" x="144" y="288"/>
<use xlink:href="#p" x="144" y="304"/>
<use xlink:href="#p" x="152" y="48"/>
<use xlink:href="#p" x="152" y="88"/>
<use xlink:href="#p" x="152" y="96"/>
<use xlink:href="#p" x="152" y="104"/>
<use xlink:href="#p" x="152" y="112"/>
<use xlink:href="#p" x="152" y="120"/>
<use xlink:href="#p" x="152" y="128"/>
<use xlink:href="#p" x="152" y="136"/>
<use xlink:href="#p" x="152" y="144"/>
<use xlink:href="#p" x="152" y="152"/>
<use xlink:href="#p" x="152" y="160"/>
<use xlink:href="#p" x="152" y="168"/>
<use xlink:href="#p" x="152" y="176"/>
<use xlink:href="#p" x="152" y="192"/>
<use xlink:href="#p" x="152" y="200"/>
<use xlink:href="#p" x="152" y="208"/>
<use xlink:href="#p" x="152" y="232"/>
<use xlink:href="#p" x="152" y="240"/>
<use xlink:href="#p" x="152" y="256"/>
<use xlink:href="#p" x="152" y="264"/>
<use xlink:href="#p" x="152" y="272"/>
<use xlink:href="#p" x="152" y="296"/>
<use xlink:href="#p" x="152" y="304"/>
<use xlink:href="#p" x="152" y="312"/>
<use xlink:href="#p" x="152" y="320"/>
<use xlink:href="#p" x="160" y="32"/>
<use xlink:href="#p" x="160" y="40"/>
<use xlink:href="#p" x="160" y="80"/>
<use xlink:href="#p" x="160" y="88"/>
<use xlink:href="#p" x="160" y="104"/>
<use xlink:href="#p" x="160" y="152"/>
<use xlink:href="#p" x="160" y="160"/>
<use xlink:href="#p" x="160" y="168"/>
<use xlink:href="#p" x="160" y="192"/>
<use xlink:href="#p" x="160" y="208"/>
<use xlink:href="#p" x="160" y="216"/>
<use xlink:href="#p" x="160" y="248"/>
<use xlink:href="#p" x="160" y="256"/>
<use xlink:href="#p" x="160" y="264"/>
<use xlink:href="#p" x="160" y="272"/>
<use xlink:href="#p" x="160" y="296"/>
<use xlink:href="#p" x="160" y="304"/>
<use xlink:href="#p" x="160" y="312"/>
<use xlink:href="#p" x="168" y="32"/>
<use xlink:href="#p" x="168" y="56"/>
<use xlink:href="#p" x="168" y="64"/>
<use xlink:href="#p" x="168" y="96"/>
<use xlink:href="#p" x="168" y="120"/>
<use xlink:href="#p" x="168" y="168"/>
<use xlink:href="#p" x="168" y="192"/>
<use xlink:href="#p" x="168" y="216"/>
<use xlink:href="#p" x="168" y="264"/>
<use xlink:href="#p" x="168" y="272"/>
<use xlink:href="#p" x="168" y="288"/>
<use xlink:href="#p" x="168" y="304"/>
<use xlink:href="#p" x="168" y="312"/>
<use xlink:href="#p" x="176" y="56"/>
<use xlink:href="#p" x="176" y="72"/>
<use xlink:href="#p" x="176" y="80"/>
<use xlink:href="#p" x="176" y="104"/>
<use xlink:href="#p" x="176" y="120"/>
<use xlink:href="#p" x="176" y="128"/>
<use xlink:href="#p" x="176" y="152"/>
<use xlink:href="#p" x="176" y="168"/>
<use xlink:href="#p" x="176" y="176"/>
<use xlink:href="#p" x="176" y="200"/>
<use xlink:href="#p" x="176" y="208"/>
<use xlink:href="#p" x="176" y="224"/>
<use xlink:href="#p" x="176" y="240"/>
<use xlink:href="#p" x="176" y="248"/>
<use xlink:href="#p" x="176" y="264"/>
<use xlink:href="#p" x="176" y="272"/>
<use xlink:href="#p" x="176" y="296"/>
<use xlink:href="#p" x="176" y="312"/>
<use xlink:href="#p" x="176" y="320"/>
<use xlink:href="#p" x="184" y="40"/>
<use xlink:href="#p" x="184" y="64"/>
<use xlink:href="#p" x="184" y="96"/>
<use xlink:href="#p" x="184" y="104"/>
<use xlink:href="#p" x="184" y="128"/>
<use xlink:href="#p" x="184" y="144"/>
<use xlink:href="#p" x="184" y="168"/>
<use xlink:href="#p" x="184" y="176"/>
<use xlink:href="#p" x="184" y="192"/>
<use xlink:href="#p" x="184" y="200"/>
<use xlink:href="#p" x="184" y="216"/>
<use xlink:href="#p" x="184" y="224"/>
<use xlink:href="#p" x="184" y="240"/>
<use xlink:href="#p" x="184" y="248"/>
<use xlink:href="#p" x="184" y="264"/>
<use xlink:href="#p" x="184" y="272"/>
<use xlink:href="#p" x="184" y="280"/>
<use xlink:href="#p" x="184" y="288"/>
<use xlink:href="#p" x="184" y="296"/>
<use xlink:href="#p" x="184" y="312"/>
<use xlink:href="#p" x="184" y="320"/>
<use xlink:href="#p" x="192" y="32"/>
<use xlink:href="#p" x="192" y="40"/>
<use xlink:href="#p" x="192" y="56"/>
<use xlink:href="#p" x="192" y="72"/>
<use xlink:href="#p" x="192" y="80"/>
<use xlink:href="#p" x="192" y="88"/>
<use xlink:href="#p" x="192" y="96"/>
<use xlink:href="#p" x="192" y="104"/>
<use xlink:href="#p" x="192" y="112"/>
<use xlink:href="#p" x="192" y="120"/>
<use xlink:href="#p" x="192" y="136"/>
<use xlink:href="#p" x="192" y="144"/>
<use xlink:href="#p" x="192" y="176"/>
<use xlink:href="#p" x="192" y="184"/>
<use xlink:href="#p" x="192" y="192"/>
<use xlink:href="#p" x="192" y="200"/>
<use xlink:href="#p" x="192" y="208"/>
<use xlink:href="#p" x="192" y="216"/>
<use xlink:href="#p" x="192" y="224"/>
<use xlink:href="#p" x="192" y="256"/>
<use xlink:href="#p" x="192" y="264"/>
<use xlink:href="#p" x="192" y="288"/>
<use xlink:href="#p" x="192" y="296"/>
<use xlink:href="#p" x="192" y="320"/>
<use xlink:href="#p" x="200" y="32"/>
<use xlink:href="#p" x="200" y="48"/>
<use xlink:href="#p" x="200" y="56"/>
<use xlink:href="#p" x="200" y="64"/>
<use xlink:href="#p" x="200" y="104"/>
<use xlink:href="#p" x="200" y="112"/>
<use xlink:href="#p" x="200" y="136"/>
<use xlink:href="#p" x="200" y="200"/>
<use xlink:href="#p" x="200" y="208"/>
<use xlink:href="#p" x="200" y="232"/>
<use xlink:href="#p" x="200" y="240"/>
<use xlink:href="#p" x="200" y="272"/>
<use xlink:href="#p" x="200" y="296"/>
<use xlink:href="#p" x="208" y="48"/>
<use xlink:href="#p" x="208" y="56"/>
<use xlink:href="#p" x="208" y="64"/>
<use xlink:href="#p" x="208" y="72"/>
<use xlink:href="#p" x="208" y="80"/>
<use xlink:href="#p" x="208" y="88"/>
<use xlink:href="#p" x="208" y="96"/>
<use xlink:href="#p" x="208" y="120"/>
<use xlink:href="#p" x="208" y="128"/>
<use xlink:href="#p" x="208" y="160"/>
<use xlink:href="#p" x="208" y="168"/>
<use xlink:href="#p" x="208" y="200"/>
<use xlink:href="#p" x="208" y="248"/>
<use xlink:href="#p" x="208" y="256"/>
<use xlink:href="#p" x="208" y="264"/>
<use xlink:href="#p" x="208" y="280"/>
<use xlink:href="#p" x="208" y="288"/>
<use xlink:href="#p" x="208" y="296"/>
<use xlink:href="#p" x="208" y="304"/>
<use xlink:href="#p" x="216" y="48"/>
<use xlink:href="#p" x="216" y="72"/>
<use xlink:href="#p" x="216" y="88"/>
<use xlink:href="#p" x="216" y="96"/>
<use xlink:href="#p" x="216" y="104"/>
<use xlink:href="#p" x="216" y="112"/>
<use xlink:href="#p" x="216" y="128"/>
<use xlink:href="#p" x="216" y="136"/>
<use xlink:href="#p" x="216" y="160"/>
<use xlink:href="#p" x="216" y="176"/>
<use xlink:href="#p" x="216" y="200"/>
<use xlink:href="#p" x="216" y="208"/>
<use xlink:href="#p" x="216" y="216"/>
<use xlink:href="#p" x="216" y="224"/>
<use xlink:href="#p" x="216" y="232"/>
<use xlink:href="#p" x="216" y="256"/>
<use xlink:href="#p" x="216" y="272"/>
<use xlink:href="#p" x="216" y="280"/>
<use xlink:href="#p" x="216" y="288"/>
<use xlink:href="#p" x="216" y="296"/>
<use xlink:href="#p" x="216" y="304"/>
<use xlink:href="#p" x="216" y="320"/>
<use xlink:href="#p" x="224" y="32"/>
<use xlink:href="#p" x="224" y="40"/>
<use xlink:href="#p" x="224" y="48"/>
<use xlink:href="#p" x="224" y="64"/>
<use xlink:href="#p" x="224" y="80"/>
<use xlink:href="#p" x="224" y="96"/>
<use xlink:href="#p" x="224" y="104"/>
<use xlink:href="#p" x="224" y="112"/>
<use xlink:href="#p" x="224" y="120"/>
<use xlink:href="#p" x="224" y="160"/>
<use xlink:href="#p" x="224" y="176"/>
<use xlink:href="#p" x="224" y="184"/>
<use xlink:href="#p" x="224" y="216"/>
<use xlink:href="#p" x="224" y="224"/>
<use xlink:href="#p" x="224" y="240"/>
<use xlink:href="#p" x="224" y="248"/>
<use xlink:href="#p" x="224" y="288"/>
<use xlink:href="#p" x="224" y="296"/>
<use xlink:href="#p" x="224" y="312"/>
<use xlink:href="#p" x="232" y="32"/>
<use xlink:href="#p" x="232" y="40"/>
<use xlink:href="#p" x="232" y="48"/>
<use xlink:href="#p" x="232" y="56"/>
<use xlink:href="#p" x="232" y="88"/>
<use xlink:href="#p" x="232" y="136"/>
<use xlink:href="#p" x="232" y="168"/>
<use xlink:href="#p" x="232" y="184"/>
<use xlink:href="#p" x="232" y="208"/>
<use xlink:href="#p" x="232" y="240"/>
<use xlink:href="#p" x="232" y="256"/>
<use xlink:href="#p" x="232" y="264"/>
<use xlink:href="#p" x="232" y="272"/>
<use xlink:href="#p" x="232" y="280"/>
<use xlink:href="#p" x="240" y="32"/>
<use xlink:href="#p" x="240" y="40"/>
<use xlink:href="#p" x="240" y="48"/>
<use xlink:href="#p" x="240" y="80"/>
<use xlink:href="#p" x="240" y="88"/>
<use xlink:href="#p" x="240" y="96"/>
<use xlink:href="#p" x="240" y="104"/>
<use xlink:href="#p" x="240" y="120"/>
<use xlink:href="#p" x="240" y="152"/>
<use xlink:href="#p" x="240" y="168"/>
<use xlink:href="#p" x="240" y="192"/>
<use xlink:href="#p" x="240" y="200"/>
<use xlink:href="#p" x="240" y="232"/>
<use xlink:href="#p" x="240" y="280"/>
<use xlink:href="#p" x="240" y="288"/>
<use xlink:href="#p" x="240" y="296"/>
<use xlink:href="#p" x="240" y="312"/>
<use xlink:href="#p" x="248" y="48"/>
<use xlink:href="#p" x="248" y="88"/>
<use xlink:href="#p" x="248" y="104"/>
<use xlink:href="#p" x="248" y="112"/>
<use xlink:href="#p" x="248" y="120"/>
<use xlink:href="#p" x="248" y="128"/>
<use xlink:href="#p" x="248" y="136"/>
<use xlink:href="#p" x="248" y="144"/>
<use xlink:href="#p" x="248" y="152"/>
<use xlink:href="#p" x="248" y="160"/>
<use xlink:href="#p" x="248" y="168"/>
<use xlink:href="#p" x="248" y="176"/>
<use xlink:href="#p" x="248" y="184"/>
<use xlink:href="#p" x="248" y="200"/>
<use xlink:href="#p" x="248" y="208"/>
<use xlink:href="#p" x="248" y="216"/>
<use xlink:href="#p" x="248" y="224"/>
<use xlink:href="#p" x="248" y="232"/>
<use xlink:href="#p" x="248" y="240"/>
<use xlink:href="#p" x="248" y="256"/>
<use xlink:href="#p" x="248" y="264"/>
<use xlink:href="#p" x="248" y="280"/>
<use xlink:href="#p" x="248" y="288"/>
<use xlink:href="#p" x="248" y="296"/>
<use xlink:href="#p" x="248" y="304"/>
<use xlink:href="#p" x="256" y="48"/>
<use xlink:href="#p" x="256" y="64"/>
<use xlink:href="#p" x="256" y="80"/>
<use xlink:href="#p" x="256" y="88"/>
<use xlink:href="#p" x="256" y="96"/>
<use xlink:href="#p" x="256" y="104"/>
<use xlink:href="#p" x="256" y="112"/>
<use xlink:href="#p" x="256" y="120"/>
<use xlink:href="#p" x="256" y="128"/>
<use xlink:href="#p" x="256" y="136"/>
<use xlink:href="#p" x="256" y="152"/>
<use xlink:href="#p" x="256" y="176"/>
<use xlink:href="#p" x="256" y="184"/>
<use xlink:href="#p" x="256" y="192"/>
<use xlink:href="#p" x="256" y="200"/>
<use xlink:href="#p" x="256" y="208"/>
<use xlink:href="#p" x="256" y="216"/>
<use xlink:href="#p" x="256" y="232"/>
<use xlink:href="#p" x="256" y="240"/>
<use xlink:href="#p" x="256" y="248"/>
<use xlink:href="#p" x="256" y="256"/>
<use xlink:href="#p" x="256" y="264"/>
<use xlink:href="#p" x="256" y="272"/>
<use xlink:href="#p" x="256" y="280"/>
<use xlink:href="#p" x="256" y="288"/>
<use xlink:href="#p" x="256" y="296"/>
<use xlink:href="#p" x="256" y="304"/>
<use xlink:href="#p" x="256" y="320"/>
<use xlink:href="#p" x="264" y="104"/>
<use xlink:href="#p" x="264" y="112"/>
<use xlink:href="#p" x="264" y="128"/>
<use xlink:href="#p" x="264" y="144"/>
<use xlink:href="#p" x="264" y="168"/>
<use xlink:href="#p" x="264" y="192"/>
<use xlink:href="#p" x="264" y="232"/>
<use xlink:href="#p" x="264" y="240"/>
<use xlink:href="#p" x="264" y="248"/>
<use xlink:href="#p" x="264" y="256"/>
<use xlink:href="#p" x="264" y="288"/>
<use xlink:href="#p" x="264" y="296"/>
<use xlink:href="#p" x="264" y="312"/>
<use xlink:href="#p" x="264" y="320"/>
<use xlink:href="#p" x="272" y="32"/>
<use xlink:href="#p" x="272" y="40"/>
<use xlink:href="#p" x="272" y="48"/>
<use xlink:href="#p" x="272" y="56"/>
<use xlink:href="#p" x="272" y="64"/>
<use xlink:href="#p" x="272" y="72"/>
<use xlink:href="#p" x="272" y="80"/>
<use xlink:href="#p" x="272" y="96"/>
<use xlink:href="#p" x="272" y="112"/>
<use xlink:href="#p" x="272" y="128"/>
<use xlink:href="#p" x="272" y="160"/>
<use xlink:href="#p" x="272" y="192"/>
<use xlink:href="#p" x="272" y="208"/>
<use xlink:href="#p" x="272" y="216"/>
<use xlink:href="#p" x="272" y="224"/>
<use xlink:href="#p" x="272" y="240"/>
<use xlink:href="#p" x="272" y="248"/>
<use xlink:href="#p" x="272" y="256"/>
<use xlink:href="#p" x="272" y="272"/>
<use xlink:href="#p" x="272" y="288"/>
<use xlink:href="#p" x="272" y="296"/>
<use xlink:href="#p" x="272" y="312"/>
<use xlink:href="#p" x="280" y="32"/>
<use xlink:href="#p" x="280" y="80"/>
<use xlink:href="#p" x="280" y="104"/>
<use xlink:href="#p" x="280" y="112"/>
<use xlink:href="#p" x="280" y="120"/>
<use xlink:href="#p" x="280" y="128"/>
<use xlink:href="#p" x="280" y="144"/>
<use xlink:href="#p" x="280" y="152"/>
<use xlink:href="#p" x="280" y="168"/>
<use xlink:href="#p" x="280" y="184"/>
<use xlink:href="#p" x="280" y="192"/>
<use xlink:href="#p" x="280" y="200"/>
<use xlink:href="#p" x="280" y="216"/>
<use xlink:href="#p" x="280" y="224"/>
<use xlink:href="#p" x="280" y="248"/>
<use xlink:href="#p" x="280" y="256"/>
<use xlink:href="#p" x="280" y="288"/>
<use xlink:href="#p" x="280" y="304"/>
<use xlink:href="#p" x="280" y="312"/>
<use xlink:href="#p" x="288" y="32"/>
<use xlink:href="#p" x="288" y="48"/>
<use xlink:href="#p" x="288" y="56"/>
<use xlink:href="#p" x="288" y="64"/>
<use xlink:href="#p" x="288" y="80"/>
<use xlink:href="#p" x="288" y="104"/>
<use xlink:href="#p" x="288" y="136"/>
<use xlink:href="#p" x="288" y="144"/>
<use xlink:href="#p" x="288" y="176"/>
<use xlink:href="#p" x="288" y="192"/>
<use xlink:href="#p" x="288" y="200"/>
<use xlink:href="#p" x="288" y="208"/>
<use xlink:href="#p" x="288" y="232"/>
<use xlink:href="#p" x="288" y="248"/>
<use xlink:href="#p" x="288" y="256"/>
<use xlink:href="#p" x="288" y="264"/>
<use xlink:href="#p" x="288" y="272"/>
<use xlink:href="#p" x="288" y="280"/>
<use xlink:href="#p" x="288" y="288"/>
<use xlink:href="#p" x="288" y="304"/>
<use xlink:href="#p" x="288" y="320"/>
<use xlink:href="#p" x="296" y="32"/>
<use xlink:href="#p" x="296" y="48"/>
<use xlink:href="#p" x="296" y="56"/>
<use xlink:href="#p" x="296" y="64"/>
<use xlink:href="#p" x="296" y="80"/>
<use xlink:href="#p" x="296" y="112"/>
<use xlink:href="#p" x="296" y="128"/>
<use xlink:href="#p" x="296" y="136"/>
<use xlink:href="#p" x="296" y="160"/>
<use xlink:href="#p" x="296" y="168"/>
<use xlink:href="#p" x="296" y="184"/>
<use xlink:href="#p" x="296" y="208"/>
<use xlink:href="#p" x="296" y="216"/>
<use xlink:href="#p" x="296" y="240"/>
<use xlink:href="#p" x="296" y="248"/>
<use xlink:href="#p" x="296" y="256"/>
<use xlink:href="#p" x="296" y="264"/>
<use xlink:href="#p" x="296" y="280"/>
<use xlink:href="#p" x="296" y="288"/>
<use xlink:href="#p" x="296" y="312"/>
<use xlink:href="#p" x="296" y="320"/>
<use xlink:href="#p" x="304" y="32"/>
<use xlink:href="#p" x="304" y="48"/>
<use xlink:href="#p" x="304" y="56"/>
<use xlink:href="#p" x="304" y="64"/>
<use xlink:href="#p" x="304" y="80"/>
<use xlink:href="#p" x="304" y="112"/>
<use xlink:href="#p" x="304" y="120"/>
<use xlink:href="#p" x="304" y="136"/>
<use xlink:href="#p" x="304" y="152"/>
<use xlink:href="#p" x="304" y="160"/>
<use xlink:href="#p" x="304" y="200"/>
<use xlink:href="#p" x="304" y="216"/>
<use xlink:href="#p" x="304" y="248"/>
<use xlink:href="#p" x="304" y="256"/>
<use xlink:href="#p" x="304" y="296"/>
<use xlink:href="#p" x="304" y="304"/>
<use xlink:href="#p" x="304" y="312"/>
<use xlink:href="#p" x="312" y="32"/>
<use xlink:href="#p" x="312" y="80"/>
<use xlink:href="#p" x="312" y="104"/>
<use xlink:href="#p" x="312" y="112"/>
<use xlink:href="#p" x="312" y="128"/>
<use xlink:href="#p" x="312" y="136"/>
<use xlink:href="#p" x="312" y="144"/>
<use xlink:href="#p" x="312" y="160"/>
<use xlink:href="#p" x="312" y="192"/>
<use xlink:href="#p" x="312" y="200"/>
<use xlink:href="#p" x="312" y="216"/>
<use xlink:href="#p" x="312" y="232"/>
<use xlink:href="#p" x="312" y="240"/>
<use xlink:href="#p" x="312" y="256"/>
<use xlink:href="#p" x="312" y="264"/>
<use xlink:href="#p" x="312" y="280"/>
<use xlink:href="#p" x="312" y="288"/>
<use xlink:href="#p" x="312" y="312"/>
<use xlink:href="#p" x="320" y="32"/>
<use xlink:href="#p" x="320" y="40"/>
<use xlink:href="#p" x="320" y="48"/>
<use xlink:href="#p" x="320" y="56"/>
<use xlink:href="#p" x="320" y="64"/>
<use xlink:href="#p" x="320" y="72"/>
<use xlink:href="#p" x="320" y="80"/>
<use xlink:href="#p" x="320" y="96"/>
<use xlink:href="#p" x="320" y="112"/>
<use xlink:href="#p" x="320" y="128"/>
<use xlink:href="#p" x="320" y="144"/>
<use xlink:href="#p" x="320" y="152"/>
<use xlink:href="#p" x="320" y="160"/>
<use xlink:href="#p" x="320" y="176"/>
<use xlink:href="#p" x="320" y="184"/>
<use xlink:href="#p" x="320" y="192"/>
<use xlink:href="#p" x="320" y="208"/>
<use xlink:href="#p" x="320" y="216"/>
<use xlink:href="#p" x="320" y="224"/>
<use xlink:href="#p" x="320" y="240"/>
<use xlink:href="#p" x="320" y="248"/>
<use xlink:href="#p" x="320" y="272"/>
<use xlink:href="#p" x="320" y="280"/>
<use xlink:href="#p" x="320" y="288"/>
<use xlink:href="#p" x="320" y="304"/>
<use xlink:href="#p" x="320" y="312"/>
<use xlink:href="#p" x="320" y="320"/>
</g>
<g></g></svg>