<?xml version="1.0" encoding="UTF-8"?>
<svg width="340px" height="220px" viewBox="0 0 340 220" version="1.1" xmlns="http://www.w3.org/2000/svg" xmlns:xlink="http://www.w3.org/1999/xlink">
    <!-- Generator: Sketch 59.1 (86144) - https://sketch.com -->
    <title>Logo</title>
    <desc>Created with Sketch.</desc>
    <defs>
        <linearGradient x1="0.000938086304%" y1="49.9980032%" x2="99.9948405%" y2="49.9980032%" id="linearGradient-1">
            <stop stop-color="#00CCFF" offset="9.48%"></stop>
            <stop stop-color="#33CCB6" offset="38.81%"></stop>
            <stop stop-color="#33CC99" offset="59.76%"></stop>
            <stop stop-color="#24CC6C" offset="67.37%"></stop>
            <stop stop-color="#14CC3D" offset="76.23%"></stop>
            <stop stop-color="#09CC1C" offset="84.11%"></stop>
            <stop stop-color="#02CC07" offset="90.63%"></stop>
            <stop stop-color="#00CC00" offset="94.98%"></stop>
        </linearGradient>
    </defs>
    <g id="Logo" stroke="none" stroke-width="1" fill="none" fill-rule="evenodd">
        <g id="ZEKI-Logo_rgb_ZEKI-Logo-RGB" transform="translate(24.000000, 23.000000)" fill-rule="nonzero">
            <g id="Group">
                <path d="M110.43,0.76 C104.72,0.76 100.08,5.26 100.08,10.81 C100.08,16.36 104.71,20.86 110.43,20.86 C116.15,20.86 120.78,16.36 120.78,10.81 C120.78,5.26 116.15,0.76 110.43,0.76 Z M110.43,25.45 C104.72,25.45 100.08,30.08 100.08,35.8 C100.08,41.51 104.71,46.15 110.43,46.15 C116.15,46.15 120.78,41.52 120.78,35.8 C120.78,30.08 116.15,25.45 110.43,25.45 Z M10.53,50.42 C4.82,50.42 0.18,55.05 0.18,60.77 C0.18,66.49 4.81,71.12 10.53,71.12 C16.25,71.12 20.88,66.49 20.88,60.77 C20.88,55.05 16.24,50.42 10.53,50.42 Z M35.5,50.42 C29.79,50.42 25.15,55.05 25.15,60.77 C25.15,66.49 29.78,71.12 35.5,71.12 C41.22,71.12 45.85,66.49 45.85,60.77 C45.85,55.05 41.22,50.42 35.5,50.42 Z M60.48,50.42 C54.77,50.42 50.13,55.05 50.13,60.77 C50.13,66.49 54.76,71.12 60.48,71.12 C66.2,71.12 70.83,66.49 70.83,60.77 C70.83,55.05 66.19,50.42 60.48,50.42 Z M85.46,50.42 C79.75,50.42 75.11,55.05 75.11,60.77 C75.11,66.49 79.74,71.12 85.46,71.12 C91.18,71.12 95.81,66.49 95.81,60.77 C95.81,55.05 91.17,50.42 85.46,50.42 Z M110.43,50.42 C104.72,50.42 100.08,55.05 100.08,60.77 C100.08,66.49 104.71,71.12 110.43,71.12 C116.15,71.12 120.78,66.49 120.78,60.77 C120.78,55.05 116.15,50.42 110.43,50.42 Z M60.48,75.4 C54.77,75.4 50.13,80.03 50.13,85.75 C50.13,91.47 54.76,96.1 60.48,96.1 C66.2,96.1 70.83,91.47 70.83,85.75 C70.83,80.03 66.19,75.4 60.48,75.4 Z M85.46,75.4 C79.75,75.4 75.11,80.03 75.11,85.75 C75.11,91.47 79.74,96.1 85.46,96.1 C91.18,96.1 95.81,91.47 95.81,85.75 C95.81,80.03 91.17,75.4 85.46,75.4 Z M110.43,75.4 C104.72,75.4 100.08,80.03 100.08,85.75 C100.08,91.47 104.71,96.1 110.43,96.1 C116.15,96.1 120.78,91.47 120.78,85.75 C120.78,80.03 116.15,75.4 110.43,75.4 Z M135.41,75.4 C129.7,75.4 125.06,80.03 125.06,85.75 C125.06,91.47 129.69,96.1 135.41,96.1 C141.12,96.1 145.76,91.47 145.76,85.75 C145.76,80.03 141.12,75.4 135.41,75.4 Z M10.53,100.38 C4.82,100.38 0.18,105.01 0.18,110.73 C0.18,116.45 4.81,121.08 10.53,121.08 C16.25,121.08 20.88,116.45 20.88,110.73 C20.88,105.01 16.24,100.38 10.53,100.38 Z M35.5,100.38 C29.79,100.38 25.15,105.01 25.15,110.73 C25.15,116.45 29.78,121.08 35.5,121.08 C41.22,121.08 45.85,116.45 45.85,110.73 C45.85,105.01 41.22,100.38 35.5,100.38 Z M85.46,100.38 C79.75,100.38 75.11,105.01 75.11,110.73 C75.11,116.45 79.74,121.08 85.46,121.08 C91.18,121.08 95.81,116.45 95.81,110.73 C95.81,105.01 91.17,100.38 85.46,100.38 Z M110.43,100.38 C104.72,100.38 100.08,105.01 100.08,110.73 C100.08,116.45 104.71,121.08 110.43,121.08 C116.15,121.08 120.78,116.45 120.78,110.73 C120.78,105.01 116.15,100.38 110.43,100.38 Z M160.39,75.4 C154.68,75.4 150.04,80.03 150.04,85.75 C150.04,91.47 154.67,96.1 160.39,96.1 C166.11,96.1 170.74,91.47 170.74,85.75 C170.74,80.03 166.1,75.4 160.39,75.4 Z M110.43,125.35 C104.72,125.35 100.08,129.98 100.08,135.7 C100.08,141.42 104.71,146.05 110.43,146.05 C116.15,146.05 120.78,141.42 120.78,135.7 C120.78,129.98 116.15,125.35 110.43,125.35 Z M110.43,150.33 C104.72,150.33 100.08,154.96 100.08,160.68 C100.08,166.4 104.71,171.03 110.43,171.03 C116.15,171.03 120.78,166.4 120.78,160.68 C120.78,154.96 116.15,150.33 110.43,150.33 Z" id="Shape" fill="url(#linearGradient-1)"></path>
                <circle id="Oval" fill="#0033CC" cx="60.48" cy="110.72" r="10.35"></circle>
            </g>
            <g id="Group" transform="translate(141.000000, 115.000000)" fill="#000000">
                <path d="M37.74,47.91 C37.74,49.71 37.52,51.63 37.08,53.68 L1.88,53.68 L0.57,51.71 L20.73,12.57 L2.84,12.57 C2.6,11.5 2.44,10.5 2.37,9.58 C2.3,8.66 2.26,7.78 2.26,6.95 C2.26,6.12 2.3,5.22 2.37,4.25 C2.44,3.28 2.6,2.25 2.84,1.18 L38.41,1.18 L39.51,3.3 L19.5,42.37 L37.1,42.37 C37.52,44.4 37.74,46.25 37.74,47.91 Z" id="Path"></path>
                <path d="M74.04,26.29 C74.04,28 73.82,29.89 73.38,31.99 L59.29,31.99 L59.29,42.36 L77.62,42.36 C78.06,44.4 78.28,46.26 78.28,47.91 C78.28,49.71 78.06,51.63 77.62,53.68 L46.36,53.68 L46.36,1.17 L77.18,1.17 C77.37,2.24 77.52,3.24 77.62,4.16 C77.72,5.09 77.77,5.96 77.77,6.79 C77.77,8.4 77.58,10.32 77.19,12.56 L59.3,12.56 L59.3,20.59 L73.39,20.59 C73.82,22.74 74.04,24.64 74.04,26.29 Z" id="Path"></path>
                <path d="M85.57,1.32 C86.88,1.13 88.08,0.98 89.15,0.88 C90.22,0.78 91.17,0.73 92,0.73 C92.88,0.73 93.86,0.78 94.96,0.88 C96.06,0.98 97.24,1.12 98.5,1.32 L98.5,53.46 C95.92,53.9 93.78,54.12 92.07,54.12 C90.27,54.12 88.1,53.9 85.57,53.46 L85.57,1.32 Z M113.76,26.51 L127.42,53.46 C126.59,53.65 125.48,53.81 124.1,53.93 C122.71,54.05 121.46,54.11 120.34,54.11 C118.93,54.11 117.57,54.05 116.25,53.93 C114.94,53.81 113.81,53.65 112.89,53.46 L99.53,27.17 L111.87,1.32 C113.33,1.08 114.6,0.92 115.67,0.85 C116.74,0.78 117.84,0.74 118.96,0.74 C119.5,0.74 120.1,0.75 120.79,0.78 C121.47,0.8 122.14,0.85 122.8,0.93 C123.46,1 124.09,1.08 124.7,1.15 C125.31,1.22 125.83,1.28 126.27,1.33 L113.76,26.51 Z" id="Shape"></path>
                <path d="M139.03,54.12 C137.23,54.12 135.06,53.9 132.53,53.46 L132.53,1.32 C133.84,1.13 135.04,0.98 136.11,0.88 C137.18,0.78 138.13,0.73 138.96,0.73 C139.84,0.73 140.82,0.78 141.92,0.88 C143.02,0.98 144.2,1.12 145.46,1.32 L145.46,53.46 C142.88,53.9 140.74,54.12 139.03,54.12 Z" id="Path"></path>
            </g>
        </g>
    </g>
</svg>