<svg width="255" height="80" viewBox="0 0 255 80" fill="none" xmlns="http://www.w3.org/2000/svg">
<g clip-path="url(#clip0_2750_59)">
<path d="M225.533 61.6672H204.466C199.777 64.4066 196.251 68.9189 194.805 74.2847C200.735 77.7505 207.635 79.7384 215 79.7384C222.364 79.7384 229.264 77.7505 235.195 74.2847C233.749 68.9189 230.223 64.4064 225.533 61.6672Z" fill="#D5D2BD"/>
<path d="M203.61 62.1952C199.349 64.9675 196.161 69.2503 194.805 74.2845C200.735 77.7503 207.635 79.7383 215 79.7383V71.1124C215 69.4566 213.836 68.0238 212.213 67.6983C208.698 66.9941 205.655 64.9835 203.61 62.1952Z" fill="#E7E4CD"/>
<path d="M226.154 68.711V78.1641C227.6 77.7458 229.013 77.2478 230.386 76.6761C229.778 73.6034 228.273 70.8536 226.154 68.711Z" fill="#C1BDAB"/>
<path d="M199.613 76.6759C200.987 77.2478 202.399 77.7456 203.845 78.1639V68.711C201.727 70.8536 200.222 73.6034 199.613 76.6759Z" fill="#D5D2BD"/>
<path d="M215.932 68.4725L217.154 70.8803L219.825 71.2578C220.692 71.3803 221.034 72.45 220.398 73.0522L218.485 74.8659L218.943 77.4631C219.093 78.3134 218.206 78.9691 217.437 78.5758L215 77.3292L212.562 78.5758C211.793 78.9691 210.906 78.3134 211.056 77.4631L211.514 74.8659L209.601 73.0522C208.966 72.45 209.307 71.3803 210.174 71.2578L212.845 70.8803L214.067 68.4725C214.454 67.7091 215.545 67.7091 215.932 68.4725Z" fill="#BD7155"/>
<path d="M213.979 68.6474L212.845 70.8803L210.174 71.2578C209.307 71.3803 208.966 72.45 209.601 73.0522L211.514 74.8659L211.056 77.4631C210.906 78.3134 211.793 78.9691 212.562 78.5758L215 77.3292V71.1124C215 70.1608 214.614 69.2839 213.979 68.6474Z" fill="#CE9276"/>
<path d="M238.452 34.9665L238.464 32.6587C236.116 23.7748 229.564 15.6545 221.283 12.8258C219.278 12.1408 217.172 11.7648 215 11.7648C203.853 11.7648 194.452 21.6242 191.535 32.6588L191.548 35.1493C191.27 36.0549 191.116 37.0124 191.108 38.0041C191.098 39.2479 191.93 45.2932 191.93 45.2932L202.19 60.4222C205.913 62.7236 210.301 64.0524 214.999 64.0524C225.307 64.0524 234.121 57.6602 237.696 48.6243C238.165 47.4391 238.395 46.1729 238.401 44.8985L238.417 41.8527C238.777 40.6191 238.96 39.3259 238.949 38.0041C238.941 36.9454 238.766 35.9251 238.452 34.9665Z" fill="#D5A150"/>
<path d="M227.245 54.0688C228.238 53.0496 227.459 51.3566 226.036 51.3965C225.911 51.3999 225.786 51.4016 225.661 51.4016C223.362 51.4016 221.135 50.8024 219.176 49.7257C216.596 48.3077 213.462 48.3074 210.883 49.7257C208.923 50.8026 206.697 51.4016 204.398 51.4016C200.832 51.4016 197.483 50.0044 194.966 47.4677C193.328 45.816 192.179 43.8132 191.582 41.6332L191.599 44.8965C191.606 46.2137 191.86 47.5183 192.351 48.7405C194.305 53.6065 197.782 57.6966 202.191 60.4222C204.774 61.0819 207.345 61.438 209.772 61.438C216.622 61.4379 222.813 58.6147 227.245 54.0688Z" fill="#E1B872"/>
<path d="M206.622 32.5345H201.26C198.18 32.5345 195.683 35.0315 195.683 38.1118C195.683 42.9248 199.584 46.8263 204.397 46.8263C207.81 46.8263 210.924 44.8807 212.42 41.8135C214.51 37.5284 211.39 32.5345 206.622 32.5345Z" fill="#A57D48"/>
<path d="M223.437 32.5345H228.798C231.879 32.5345 234.376 35.0315 234.376 38.1118C234.376 42.9248 230.474 46.8263 225.661 46.8263C222.249 46.8263 219.135 44.8807 217.639 41.8135C215.548 37.5284 218.669 32.5345 223.437 32.5345Z" fill="#A57D48"/>
<path d="M215 1.30719C198.636 1.30719 185.37 14.6058 185.37 31.0104V44.0085C185.37 45.4524 186.541 46.6229 187.984 46.6229C190.316 46.6229 192.293 44.9434 192.71 42.6495C194.635 32.0682 194.782 24.0215 215 24.0215C234.869 24.0215 235.364 32.0682 237.289 42.6495C237.707 44.9435 239.683 46.6229 242.015 46.6229C243.459 46.6229 244.629 45.4524 244.629 44.0085V31.0104C244.629 14.6058 231.364 1.30719 215 1.30719Z" fill="#BD7155"/>
<path d="M204.542 25.0798C207.248 24.3931 210.661 24.0215 214.999 24.0215C219.336 24.0215 222.75 24.405 225.457 25.1145V3.21234C222.205 1.98219 218.681 1.30719 214.999 1.30719C211.318 1.30719 207.794 1.98219 204.542 3.21234V25.0798Z" fill="#E7E4CD"/>
<path d="M215.932 8.5028L217.154 10.9106L219.825 11.2881C220.692 11.4106 221.034 12.4803 220.399 13.0825L218.486 14.8962L218.944 17.4934C219.093 18.3437 218.207 18.9993 217.438 18.6061L215 17.3595L212.562 18.6061C211.793 18.9992 210.906 18.3437 211.056 17.4934L211.514 14.8962L209.601 13.0825C208.966 12.4803 209.307 11.4106 210.174 11.2881L212.845 10.9106L214.067 8.5028C214.455 7.73936 215.545 7.73936 215.932 8.5028Z" fill="#67A0C0"/>
<path opacity="0.2" d="M215 1.30719V9.07561C215 14.2025 211.286 18.5942 206.223 19.3968C200.663 20.2781 196.678 22.1467 193.76 25.155C189.738 29.3014 188.796 34.6988 187.885 39.9184C187.861 40.0546 187.837 40.1915 187.813 40.3288C187.705 40.9443 187.171 41.3946 186.546 41.3946H185.371V44.009C185.371 45.4529 186.542 46.6234 187.985 46.6234C190.307 46.6234 192.29 44.9602 192.706 42.6766C194.636 32.0821 194.766 24.0218 215.001 24.0218C234.888 24.0218 235.366 32.0834 237.296 42.679C237.711 44.9616 239.696 46.6232 242.016 46.6232C243.46 46.6232 244.63 45.4527 244.63 44.0088V41.3945V31.0107C244.63 14.6058 231.364 1.30719 215 1.30719Z" fill="#493023"/>
<path opacity="0.3" d="M187.423 20.1257C187.552 20.1278 187.681 20.1306 187.81 20.1306C198.873 20.1306 208.081 12.2026 210.069 1.71875C199.711 3.45843 191.174 10.5833 187.423 20.1257Z" fill="#E7E4CD"/>
<path d="M220.009 69.9636L218.012 69.6814L217.099 67.881C216.695 67.0864 215.891 66.5928 215 66.5928C214.109 66.5928 213.305 67.0864 212.902 67.881L211.989 69.6813L209.992 69.9635C209.09 70.0908 208.357 70.7092 208.08 71.5772C207.802 72.4452 208.041 73.3738 208.702 74.0008L210.615 75.8145C211.139 76.3113 211.966 76.2891 212.463 75.7652C212.96 75.2413 212.938 74.4139 212.414 73.9172L210.894 72.4763L213.029 72.1745C213.452 72.1147 213.818 71.8525 214.012 71.4716L215 69.5231L215.989 71.4716C216.182 71.8524 216.549 72.1147 216.972 72.1745L219.107 72.4763L217.587 73.9172C217.268 74.2191 217.123 74.6608 217.199 75.093L217.565 77.1727L215.595 76.1656C215.221 75.9744 214.779 75.9744 214.405 76.1656L212.341 77.2209C212.243 76.702 211.834 76.2731 211.283 76.1759C210.572 76.0509 209.895 76.5255 209.769 77.2364C209.613 78.1216 209.965 79.0031 210.688 79.5373C211.411 80.0716 212.358 80.1491 213.158 79.74L215 78.7978L216.843 79.74C217.184 79.9142 217.551 80.0002 217.917 80.0002C218.409 80.0002 218.897 79.8441 219.312 79.5372C220.035 79.0031 220.387 78.1214 220.231 77.2363L219.895 75.3314L221.299 74.0013C221.96 73.3744 222.198 72.4456 221.921 71.5777C221.644 70.7094 220.911 70.091 220.009 69.9636Z" fill="black"/>
<path d="M220.009 9.99389L218.012 9.7117L217.099 7.91139C216.695 7.11655 215.891 6.62296 215 6.62296C214.109 6.62296 213.305 7.11655 212.902 7.91139L211.989 9.7117L209.992 9.99389C209.09 10.1212 208.357 10.7397 208.08 11.6076C207.802 12.4756 208.041 13.4042 208.702 14.0312L210.105 15.3614L209.769 17.2664C209.613 18.1515 209.965 19.0332 210.688 19.5673C211.411 20.1015 212.357 20.179 213.158 19.77L215 18.8278L216.843 19.77C217.184 19.9442 217.551 20.0301 217.916 20.0301C218.409 20.0301 218.897 19.874 219.312 19.5672C220.035 19.0331 220.387 18.1514 220.231 17.2662C220.106 16.5553 219.428 16.0804 218.717 16.2057C218.166 16.3029 217.757 16.7317 217.659 17.2507L215.595 16.1954C215.222 16.0042 214.779 16.0042 214.405 16.1954L212.435 17.2028L212.802 15.1231C212.878 14.6911 212.732 14.2493 212.414 13.9473L210.894 12.5064L213.029 12.2047C213.451 12.1448 213.818 11.8826 214.011 11.5017L215 9.55342L215.989 11.5017C216.182 11.8825 216.549 12.1448 216.971 12.2047L219.106 12.5064L217.586 13.9473C217.062 14.444 217.04 15.2714 217.537 15.7953C218.034 16.3193 218.861 16.3412 219.385 15.8447L221.298 14.0312C221.96 13.4043 222.198 12.4756 221.921 11.6076C221.644 10.7397 220.911 10.1212 220.009 9.99389Z" fill="black"/>
<path d="M226.034 2.04031C225.962 2.005 225.886 1.97578 225.808 1.95406C222.442 0.691874 218.8 0 215 0C211.2 0 207.559 0.691874 204.193 1.95406C204.114 1.97578 204.039 2.005 203.967 2.04031C192.341 6.50436 184.063 17.8059 184.063 31.0106V44.0087C184.063 46.1712 185.823 47.9302 187.985 47.9302C190.937 47.9302 193.465 45.8077 193.997 42.8835C194.11 42.2605 194.218 41.6466 194.323 41.0423C194.393 40.6423 194.462 40.2474 194.531 39.8574C195.36 44.5537 199.467 48.1337 204.398 48.1337C208.282 48.1337 211.892 45.878 213.595 42.387C213.821 41.923 213.998 41.4448 214.127 40.9588H215.932C216.061 41.4449 216.238 41.9232 216.464 42.3871C218.167 45.878 221.777 48.1338 225.661 48.1338C230.527 48.1338 234.591 44.6482 235.494 40.0434C235.58 40.511 235.664 40.9855 235.75 41.4673C235.833 41.9338 235.917 42.4062 236.004 42.8835C236.174 43.8193 236.549 44.6724 237.077 45.4009C237.021 46.3604 236.822 47.2819 236.481 48.1433C232.971 57.0133 224.539 62.745 215 62.745C210.705 62.745 206.513 61.5574 202.878 59.3102C198.697 56.7258 195.389 52.799 193.563 48.2532C193.294 47.5832 192.533 47.2585 191.863 47.5274C191.193 47.7965 190.868 48.5577 191.137 49.2276C193.17 54.2877 196.851 58.6582 201.504 61.5339C201.639 61.618 201.778 61.6971 201.915 61.7785C197.818 64.7653 194.864 69.0435 193.543 73.9447C193.355 74.6419 193.768 75.3591 194.465 75.547C194.579 75.5777 194.693 75.5924 194.806 75.5924C195.382 75.5924 195.91 75.208 196.067 74.6249C197.324 69.9625 200.256 65.9375 204.323 63.2911C204.397 63.2433 204.464 63.1894 204.524 63.1305C207.803 64.5943 211.368 65.3594 215 65.3594C218.641 65.3594 222.184 64.6021 225.449 63.1466C229.639 65.7899 232.649 69.8591 233.933 74.6249C234.09 75.208 234.618 75.5924 235.194 75.5924C235.307 75.5924 235.421 75.5777 235.535 75.547C236.232 75.3592 236.645 74.6419 236.457 73.9449C235.132 69.0269 232.187 64.7639 228.089 61.7797C228.608 61.4721 229.118 61.1472 229.617 60.8014C233.823 57.8893 237.036 53.8447 238.912 49.1052C239.135 48.5402 239.31 47.956 239.44 47.3577C240.227 47.726 241.101 47.9302 242.015 47.9302C244.178 47.9302 245.937 46.1712 245.937 44.0087V31.0106C245.937 17.8057 237.66 6.50436 226.034 2.04031ZM211.245 41.2405C209.977 43.8398 207.29 45.5191 204.397 45.5191C200.313 45.5191 196.99 42.1963 196.99 38.1118C196.99 35.7573 198.906 33.8417 201.26 33.8417H206.622C208.408 33.8417 210.038 34.7457 210.984 36.2598C211.93 37.7738 212.028 39.6359 211.245 41.2405ZM225.661 45.5193C222.769 45.5193 220.081 43.8398 218.813 41.2407C218.03 39.636 218.128 37.774 219.074 36.2598C220.02 34.7456 221.651 33.8417 223.436 33.8417H228.798C231.153 33.8417 233.068 35.7573 233.068 38.1118C233.069 42.1962 229.746 45.5193 225.661 45.5193ZM228.798 31.2273H223.436C220.744 31.2273 218.284 32.5907 216.857 34.8743C216.187 35.9467 215.803 37.1349 215.702 38.3441H214.356C214.255 37.1349 213.872 35.9467 213.201 34.8742C211.775 32.5904 209.315 31.2271 206.622 31.2271H201.26C199.193 31.2271 197.337 32.144 196.074 33.591C196.64 32.1117 197.387 30.8017 198.451 29.7056C201.347 26.7195 206.606 25.3287 215 25.3287C223.359 25.3287 228.612 26.7579 231.528 29.8265C232.483 30.8312 233.188 32.0082 233.739 33.3248C232.487 32.0328 230.735 31.2273 228.798 31.2273ZM243.323 44.0087C243.323 44.7296 242.736 45.3159 242.015 45.3159C240.328 45.3159 238.881 44.0962 238.576 42.4157C238.489 41.9418 238.406 41.4727 238.324 41.0098C237.405 35.8426 236.612 31.3799 233.424 28.0256C231.783 26.2992 229.593 25.0132 226.765 24.139V22.1062C226.765 21.3843 226.18 20.799 225.458 20.799C224.736 20.799 224.151 21.3843 224.151 22.1062V23.484C221.554 22.9671 218.522 22.7146 215 22.7146C211.478 22.7146 208.445 22.9593 205.85 23.4603V16.122C205.85 15.4001 205.265 14.8148 204.543 14.8148C203.821 14.8148 203.236 15.4001 203.236 16.122V24.0957C200.399 24.9471 198.208 26.2009 196.575 27.8853C193.393 31.1651 192.63 35.534 191.748 40.5927C191.643 41.191 191.537 41.799 191.425 42.4157C191.119 44.0963 189.673 45.3162 187.985 45.3162C187.264 45.3162 186.678 44.7299 186.678 44.009V31.0109C186.678 19.5593 193.475 9.67045 203.235 5.18327V6.30389C203.235 7.02577 203.821 7.61108 204.543 7.61108C205.265 7.61108 205.85 7.02577 205.85 6.30389V4.13577C208.722 3.15015 211.8 2.61437 215 2.61437C218.201 2.61437 221.279 3.15015 224.15 4.13577V14.1634C224.15 14.8853 224.736 15.4706 225.458 15.4706C226.18 15.4706 226.765 14.8853 226.765 14.1634V5.18296C236.526 9.67014 243.322 19.559 243.322 31.0106V44.0087H243.323Z" fill="black"/>
<path d="M206.285 42.2657C207.729 42.2657 208.9 41.0952 208.9 39.6513C208.9 38.2074 207.729 37.037 206.285 37.037C204.841 37.037 203.671 38.2074 203.671 39.6513C203.671 41.0952 204.841 42.2657 206.285 42.2657Z" fill="black"/>
<path d="M223.715 42.2657C225.159 42.2657 226.329 41.0952 226.329 39.6513C226.329 38.2074 225.159 37.037 223.715 37.037C222.271 37.037 221.101 38.2074 221.101 39.6513C221.101 41.0952 222.271 42.2657 223.715 42.2657Z" fill="black"/>
<path d="M217.78 48.5904C218.287 48.0758 218.281 47.2483 217.766 46.7416C217.252 46.2351 216.424 46.2415 215.918 46.7557C215.673 47.0044 215.345 47.143 214.996 47.1455C214.647 47.1482 214.318 47.0146 214.069 46.7698C213.555 46.2632 212.727 46.2696 212.221 46.7837C211.714 47.2982 211.72 48.1257 212.235 48.6324C212.981 49.3674 213.969 49.7679 215.016 49.7599C216.064 49.7521 217.045 49.3368 217.78 48.5904Z" fill="black"/>
<path d="M227.084 67.7919C226.577 67.2785 225.749 67.2739 225.236 67.7813C224.722 68.2888 224.718 69.1166 225.225 69.6299C227.216 71.6436 228.558 74.1678 229.104 76.9297C229.228 77.5522 229.774 77.9833 230.385 77.9833C230.47 77.9833 230.555 77.9752 230.641 77.958C231.349 77.8178 231.809 77.1302 231.669 76.4219C231.022 73.1556 229.437 70.1714 227.084 67.7919Z" fill="black"/>
<path d="M202.916 67.7919C200.563 70.1713 198.978 73.1555 198.331 76.4222C198.191 77.1303 198.651 77.8181 199.359 77.9583C199.445 77.9753 199.53 77.9836 199.614 77.9836C200.226 77.9836 200.772 77.5525 200.896 76.93C201.442 74.1681 202.784 71.6439 204.775 69.6302C205.282 69.1169 205.278 68.2892 204.764 67.7816C204.251 67.2738 203.423 67.2785 202.916 67.7919Z" fill="black"/>
</g>
<g clip-path="url(#clip1_2750_59)">
<path d="M125.723 73.7944C125.723 76.6861 123.093 78.86 120.251 78.3259C114.512 77.2473 109.232 74.4739 105.013 70.2547C99.481 64.723 96.4346 57.368 96.4346 49.545C96.4346 41.722 99.481 34.367 105.013 28.8353C109.675 24.1736 115.631 21.2772 122.071 20.4813L119.029 17.4389C117.253 15.6634 117.145 12.7705 118.871 10.9469C120.662 9.05484 123.648 9.02391 125.478 10.8539L136.661 22.0372C138.461 23.8369 138.461 26.7547 136.661 28.5542L125.478 39.7375C124.578 40.6373 123.399 41.0872 122.22 41.0872C121.007 41.0872 119.794 40.6117 118.886 39.6605C117.146 37.8392 117.245 34.9361 119.026 33.155L122.438 29.7434C112.928 31.3156 105.651 39.5956 105.651 49.5448C105.651 59.3363 112.698 67.5125 121.987 69.268C124.158 69.678 125.723 71.5852 125.723 73.7944Z" fill="#8AE9FF"/>
<path d="M121.113 80C120.728 80 120.342 79.9645 119.957 79.8922C113.866 78.7475 108.309 75.8047 103.886 71.3816C98.053 65.5487 94.8408 57.7939 94.8408 49.545C94.8408 41.2961 98.0532 33.5409 103.886 27.7083C108.05 23.5444 113.15 20.722 118.778 19.4413L117.902 18.5656C115.512 16.1753 115.427 12.2661 117.713 9.85109C118.876 8.62313 120.446 7.93406 122.134 7.91094C123.824 7.88391 125.411 8.53266 126.605 9.72672L137.788 20.9102C138.96 22.0816 139.605 23.6389 139.605 25.2955C139.605 26.952 138.959 28.5094 137.788 29.6809L126.605 40.8642C125.433 42.0356 123.876 42.6806 122.219 42.6806C120.509 42.6806 118.916 41.9989 117.733 40.7611C115.792 38.7292 115.536 35.6348 116.932 33.2748C111.086 36.4158 107.244 42.5617 107.244 49.5447C107.244 58.4189 113.569 66.055 122.283 67.7019C125.199 68.253 127.316 70.8152 127.316 73.7942C127.316 75.6458 126.499 77.3856 125.074 78.5678C123.948 79.5023 122.549 80 121.113 80ZM122.221 11.0977C122.207 11.0977 122.192 11.0977 122.178 11.098C121.358 11.1091 120.594 11.4445 120.028 12.0422C118.918 13.2155 118.975 15.1306 120.156 16.3119L123.198 19.3539C123.629 19.7847 123.776 20.4231 123.578 20.9991C123.381 21.575 122.871 21.9878 122.267 22.0623C116.125 22.8214 110.549 25.553 106.14 29.9617C100.909 35.1923 98.0283 42.147 98.0283 49.5445C98.0283 56.9419 100.909 63.8967 106.14 69.1273C110.107 73.0947 115.088 75.7337 120.546 76.7594C121.435 76.9267 122.344 76.6917 123.039 76.1145C123.732 75.5398 124.129 74.6941 124.129 73.7941C124.129 72.3456 123.104 71.1005 121.691 70.8336C111.474 68.9027 104.058 59.9494 104.058 49.5447C104.058 44.3869 105.908 39.3869 109.268 35.4656C112.591 31.5886 117.176 28.9981 122.179 28.1711C122.862 28.0584 123.54 28.3994 123.856 29.0152C124.173 29.6309 124.055 30.3808 123.566 30.8703L120.154 34.2819C118.969 35.4669 118.917 37.3858 120.039 38.5595C120.614 39.1617 121.389 39.4936 122.22 39.4936C123.026 39.4936 123.782 39.18 124.352 38.6106L135.535 27.4273C136.105 26.858 136.418 26.1009 136.418 25.2958C136.418 24.4905 136.105 23.7336 135.535 23.1641L124.352 11.9808C123.781 11.4103 123.026 11.0977 122.221 11.0977Z" fill="#248A9C"/>
<path d="M126.856 34.1034C126.449 34.1034 126.041 33.948 125.729 33.6367C125.107 33.0144 125.107 32.0053 125.729 31.3828L125.951 31.1614C126.573 30.5391 127.582 30.5391 128.205 31.1614C128.827 31.7837 128.827 32.7928 128.205 33.4153L127.983 33.6367C127.672 33.948 127.264 34.1034 126.856 34.1034Z" fill="#248A9C"/>
<path d="M130.187 30.7812C129.78 30.7812 129.372 30.6258 129.061 30.3145C128.438 29.6922 128.438 28.6831 129.061 28.0608L132.72 24.4014C133.342 23.7791 134.351 23.7789 134.974 24.4014C135.596 25.0237 135.596 26.0328 134.974 26.6552L131.314 30.3144C131.003 30.6255 130.595 30.7812 130.187 30.7812Z" fill="#248A9C"/>
<path d="M136.277 6.20563C136.277 3.31391 138.907 1.14 141.749 1.67406C147.488 2.75266 152.768 5.5261 156.987 9.74531C162.519 15.277 165.565 22.632 165.565 30.455C165.565 38.278 162.519 45.633 156.987 51.1647C152.325 55.8264 146.369 58.7228 139.928 59.5188L142.971 62.5609C144.746 64.3364 144.855 67.2294 143.129 69.053C141.338 70.945 138.351 70.9758 136.521 69.1459L125.338 57.9627C123.538 56.163 123.538 53.2452 125.338 51.4456L136.521 40.2623C137.421 39.3625 138.601 38.9127 139.78 38.9127C140.993 38.9127 142.205 39.3881 143.114 40.3394C144.854 42.1606 144.754 45.0638 142.973 46.8449L139.561 50.2564C149.072 48.6842 156.349 40.4042 156.349 30.455C156.349 20.6636 149.301 12.4873 140.013 10.7319C137.842 10.3219 136.277 8.41453 136.277 6.20563Z" fill="#8AE9FF"/>
<path d="M139.777 72.0894C138.121 72.0894 136.568 71.4464 135.394 70.273L124.211 59.0897C121.793 56.6716 121.793 52.7369 124.211 50.3187L135.394 39.1355C136.566 37.9641 138.123 37.3191 139.78 37.3191C141.49 37.3191 143.083 38.0008 144.266 39.2386C146.207 41.2705 146.463 44.3648 145.067 46.7248C150.913 43.5839 154.755 37.4381 154.755 30.455C154.755 21.5808 148.43 13.9447 139.717 12.2978C136.8 11.7467 134.683 9.18453 134.683 6.20546C134.683 4.35374 135.501 2.61406 136.926 1.43187C138.353 0.247494 140.219 -0.23485 142.043 0.10765C148.133 1.25234 153.69 4.19515 158.114 8.61812C163.947 14.4509 167.159 22.2061 167.159 30.4547C167.159 38.7036 163.946 46.4587 158.114 52.2914C153.95 56.4553 148.849 59.2777 143.222 60.5584L144.097 61.4339C146.487 63.8242 146.572 67.7334 144.286 70.1484C143.124 71.3764 141.554 72.0655 139.865 72.0886C139.836 72.0892 139.806 72.0894 139.777 72.0894ZM139.78 40.5062C138.974 40.5062 138.218 40.8198 137.648 41.3892L126.465 52.5725C125.289 53.7478 125.289 55.6603 126.465 56.8358L137.648 68.0191C138.229 68.5997 139.008 68.913 139.821 68.9017C140.642 68.8906 141.405 68.5552 141.971 67.9575C143.082 66.7842 143.024 64.8691 141.844 63.6878L138.801 60.6458C138.371 60.215 138.223 59.5766 138.421 59.0006C138.619 58.4247 139.128 58.0119 139.732 57.9373C145.874 57.1783 151.451 54.4467 155.859 50.038C161.09 44.8073 163.971 37.8526 163.971 30.4551C163.971 23.0578 161.09 16.103 155.859 10.8723C151.892 6.90499 146.911 4.26593 141.454 3.24031C140.564 3.07281 139.656 3.30796 138.96 3.88515C138.267 4.45968 137.87 5.30562 137.87 6.20562C137.87 7.65406 138.895 8.89921 140.308 9.16609C150.526 11.0972 157.942 20.0503 157.942 30.4551C157.942 35.613 156.091 40.6131 152.731 44.5342C149.409 48.4112 144.824 51.0017 139.821 51.8287C139.139 51.9414 138.46 51.6006 138.143 50.9847C137.827 50.3689 137.944 49.6191 138.434 49.1295L141.845 45.718C143.03 44.5331 143.082 42.6141 141.961 41.4403C141.386 40.8381 140.611 40.5062 139.78 40.5062Z" fill="#248A9C"/>
</g>
<path d="M74.4442 40C77.5125 40 79.9998 36.5178 79.9998 32.2222C79.9998 27.9267 77.5125 24.4444 74.4442 24.4444C71.376 24.4444 68.8887 27.9267 68.8887 32.2222C68.8887 36.5178 71.376 40 74.4442 40Z" fill="#F4900C"/>
<path d="M5.55556 40C8.6238 40 11.1111 36.5178 11.1111 32.2222C11.1111 27.9267 8.6238 24.4444 5.55556 24.4444C2.48731 24.4444 0 27.9267 0 32.2222C0 36.5178 2.48731 40 5.55556 40Z" fill="#F4900C"/>
<path d="M75.5554 42.2222C75.5554 42.8116 75.3213 43.3768 74.9046 43.7936C74.4878 44.2103 73.9226 44.4444 73.3332 44.4444H66.6666C66.0772 44.4444 65.512 44.2103 65.0952 43.7936C64.6785 43.3768 64.4443 42.8116 64.4443 42.2222V22.2222C64.4443 21.6329 64.6785 21.0676 65.0952 20.6509C65.512 20.2341 66.0772 20 66.6666 20H73.3332C73.9226 20 74.4878 20.2341 74.9046 20.6509C75.3213 21.0676 75.5554 21.6329 75.5554 22.2222V42.2222ZM15.5554 42.2222C15.5554 42.8116 15.3213 43.3768 14.9046 43.7936C14.4878 44.2103 13.9226 44.4444 13.3332 44.4444H6.66656C6.07719 44.4444 5.51196 44.2103 5.09521 43.7936C4.67846 43.3768 4.44434 42.8116 4.44434 42.2222V22.2222C4.44434 21.6329 4.67846 21.0676 5.09521 20.6509C5.51196 20.2341 6.07719 20 6.66656 20H13.3332C13.9226 20 14.4878 20.2341 14.9046 20.6509C15.3213 21.0676 15.5554 21.6329 15.5554 22.2222V42.2222Z" fill="#FFAC33"/>
<path d="M62.2218 11.1111C62.2218 17.2467 52.2707 20 39.9996 20C27.7262 20 17.7773 17.2467 17.7773 11.1111C17.7773 4.97556 27.7262 0 39.9996 0C52.2707 0 62.2218 4.97556 62.2218 11.1111Z" fill="#FFCC4D"/>
<path d="M55.5554 9.07333C55.5554 12.6533 48.5888 15.5556 39.9999 15.5556C31.4088 15.5556 24.4443 12.6533 24.4443 9.07333C24.4443 5.49333 31.4088 2.59111 39.9999 2.59111C48.5888 2.59111 55.5554 5.49333 55.5554 9.07333Z" fill="#F4900C"/>
<path d="M66.6663 12.2222C66.6663 15.2911 64.1797 15.5556 61.1108 15.5556H18.8886C15.8197 15.5556 13.333 15.2911 13.333 12.2222C13.333 9.15334 15.8197 6.66667 18.8886 6.66667H61.1108C62.5842 6.66667 63.9973 7.25199 65.0392 8.29386C66.081 9.33572 66.6663 10.7488 66.6663 12.2222Z" fill="#226699"/>
<path d="M66.6664 13.3333H13.3331C12.1544 13.3333 11.0239 13.8016 10.1904 14.6351C9.35692 15.4686 8.88867 16.599 8.88867 17.7778V75.5555H71.1109V17.7778C71.1109 16.599 70.6426 15.4686 69.8091 14.6351C68.9756 13.8016 67.8452 13.3333 66.6664 13.3333Z" fill="#55ACEE"/>
<path d="M77.7782 73.3333V71.1111C77.7782 69.9324 77.3099 68.8019 76.4764 67.9684C75.6429 67.1349 74.5125 66.6667 73.3337 66.6667H49.047L41.5715 74.1422C41.3653 74.3488 41.1204 74.5126 40.8508 74.6244C40.5812 74.7362 40.2922 74.7938 40.0004 74.7938C39.7085 74.7938 39.4195 74.7362 39.15 74.6244C38.8804 74.5126 38.6355 74.3488 38.4293 74.1422L30.9537 66.6667H6.66705C5.48831 66.6667 4.35785 67.1349 3.52435 67.9684C2.69086 68.8019 2.22261 69.9324 2.22261 71.1111V73.3333C2.22261 75.7867 1.99149 77.7778 4.44483 77.7778H75.5559C78.0093 77.7778 77.7782 75.7867 77.7782 73.3333Z" fill="#3B88C3"/>
<path d="M54.4443 42.2222C59.9672 42.2222 64.4443 37.7451 64.4443 32.2222C64.4443 26.6994 59.9672 22.2222 54.4443 22.2222C48.9215 22.2222 44.4443 26.6994 44.4443 32.2222C44.4443 37.7451 48.9215 42.2222 54.4443 42.2222Z" fill="white"/>
<path d="M54.4441 38.2689C57.7836 38.2689 60.4908 35.5617 60.4908 32.2222C60.4908 28.8827 57.7836 26.1756 54.4441 26.1756C51.1046 26.1756 48.3975 28.8827 48.3975 32.2222C48.3975 35.5617 51.1046 38.2689 54.4441 38.2689Z" fill="#DD2E44"/>
<path d="M25.5557 42.2222C31.0785 42.2222 35.5557 37.7451 35.5557 32.2222C35.5557 26.6994 31.0785 22.2222 25.5557 22.2222C20.0328 22.2222 15.5557 26.6994 15.5557 32.2222C15.5557 37.7451 20.0328 42.2222 25.5557 42.2222Z" fill="white"/>
<path d="M64.4445 56.6667C64.4445 58.1401 63.8592 59.5532 62.8174 60.595C61.7755 61.6369 60.3624 62.2222 58.889 62.2222H21.1112C19.6378 62.2222 18.2247 61.6369 17.1828 60.595C16.141 59.5532 15.5557 58.1401 15.5557 56.6667C15.5557 55.1932 16.141 53.7802 17.1828 52.7383C18.2247 51.6964 19.6378 51.1111 21.1112 51.1111H58.889C60.3624 51.1111 61.7755 51.6964 62.8174 52.7383C63.8592 53.7802 64.4445 55.1932 64.4445 56.6667Z" fill="#F5F8FA"/>
<path d="M37.7779 51.1111H42.2223V62.2222H37.7779V51.1111ZM26.6668 51.1111H31.1112V62.2222H26.6668V51.1111ZM48.889 51.1111H53.3334V62.2222H48.889V51.1111ZM15.5557 56.6667C15.5554 57.9474 15.9976 59.1889 16.8075 60.181C17.6174 61.1731 18.7453 61.855 20.0001 62.1111V51.2222C18.7453 51.4784 17.6174 52.1602 16.8075 53.1523C15.9976 54.1445 15.5554 55.3859 15.5557 56.6667ZM60.0001 51.2222V62.1089C61.2548 61.8528 62.3825 61.1711 63.1924 60.1792C64.0023 59.1873 64.4447 57.9461 64.4447 56.6656C64.4447 55.385 64.0023 54.1438 63.1924 53.1519C62.3825 52.16 61.2548 51.4783 60.0001 51.2222Z" fill="#CCD6DD"/>
<path d="M25.5555 38.2689C28.8949 38.2689 31.6021 35.5617 31.6021 32.2222C31.6021 28.8827 28.8949 26.1756 25.5555 26.1756C22.216 26.1756 19.5088 28.8827 19.5088 32.2222C19.5088 35.5617 22.216 38.2689 25.5555 38.2689Z" fill="#DD2E44"/>
<defs>
<clipPath id="clip0_2750_59">
<rect width="80" height="80" fill="white" transform="translate(175)"/>
</clipPath>
<clipPath id="clip1_2750_59">
<rect width="80" height="80" fill="white" transform="translate(91)"/>
</clipPath>
</defs>
</svg>
